<?xml version="1.0" encoding="UTF-8" standalone="no"?>
<!-- Created with Inkscape (http://www.inkscape.org/) -->

<svg
   xmlns:dc="http://purl.org/dc/elements/1.1/"
   xmlns:cc="http://creativecommons.org/ns#"
   xmlns:rdf="http://www.w3.org/1999/02/22-rdf-syntax-ns#"
   xmlns:svg="http://www.w3.org/2000/svg"
   xmlns="http://www.w3.org/2000/svg"
   xmlns:sodipodi="http://sodipodi.sourceforge.net/DTD/sodipodi-0.dtd"
   xmlns:inkscape="http://www.inkscape.org/namespaces/inkscape"
   width="640"
   height="768"
   viewBox="0 0 169.33333 203.19999"
   version="1.1"
   id="svg28288"
   inkscape:version="0.92.4 (5da689c313, 2019-01-14)"
   sodipodi:docname="main-menu.svg">
  <defs
     id="defs28282">
    <clipPath
       clipPathUnits="userSpaceOnUse"
       id="clipPath56679">
      <rect
         style="opacity:1;fill:#081629;fill-opacity:1;stroke:none;stroke-width:0.35412812;stroke-opacity:1"
         id="rect56681"
         width="169.33333"
         height="203.2"
         x="-3.5527137e-15"
         y="208.40242"
         rx="0.2919285"
         ry="5.7966814" />
    </clipPath>
    <clipPath
       clipPathUnits="userSpaceOnUse"
       id="clipPath67704-1">
      <rect
         style="opacity:1;fill:#757575;fill-opacity:1;stroke:none;stroke-width:0.31524938;stroke-opacity:0.94117647"
         id="rect67706-9"
         width="169.33333"
         height="203.2"
         x="0"
         y="93.799995"
         rx="0"
         ry="0" />
    </clipPath>
    <clipPath
       clipPathUnits="userSpaceOnUse"
       id="clipPath65246">
      <rect
         style="fill:#23a0da;fill-opacity:1;stroke:none;stroke-width:0.20484038"
         id="rect65248"
         width="169.33333"
         height="203.2"
         x="0"
         y="67.73333"
         rx="0.19576585"
         ry="2.8922064" />
    </clipPath>
    <clipPath
       clipPathUnits="userSpaceOnUse"
       id="clipPath11462">
      <rect
         style="opacity:1;fill:#e87aff;fill-opacity:1;stroke:none;stroke-width:0.48609254;stroke-opacity:0.94117647"
         id="rect11464"
         width="169.33333"
         height="203.2"
         x="0"
         y="93.799995"
         rx="0"
         ry="0" />
    </clipPath>
    <clipPath
       clipPathUnits="userSpaceOnUse"
       id="clipPath11462-3">
      <rect
         style="opacity:1;fill:#e87aff;fill-opacity:1;stroke:none;stroke-width:0.48609254;stroke-opacity:0.94117647"
         id="rect11464-0"
         width="169.33333"
         height="203.2"
         x="0"
         y="93.799995"
         rx="0"
         ry="0" />
    </clipPath>
  </defs>
  <sodipodi:namedview
     id="base"
     pagecolor="#ffffff"
     bordercolor="#666666"
     borderopacity="1.0"
     inkscape:pageopacity="0.0"
     inkscape:pageshadow="2"
     inkscape:zoom="0.70710678"
     inkscape:cx="211.26488"
     inkscape:cy="285.10744"
     inkscape:document-units="px"
     inkscape:current-layer="layer1"
     showgrid="false"
     units="px"
     inkscape:pagecheckerboard="true"
     showguides="true"
     inkscape:guide-bbox="true"
     inkscape:window-width="1618"
     inkscape:window-height="1028"
     inkscape:window-x="1734"
     inkscape:window-y="-8"
     inkscape:window-maximized="1" />
  <metadata
     id="metadata28285">
    <rdf:RDF>
      <cc:Work
         rdf:about="">
        <dc:format>image/svg+xml</dc:format>
        <dc:type
           rdf:resource="http://purl.org/dc/dcmitype/StillImage" />
        <dc:title></dc:title>
      </cc:Work>
    </rdf:RDF>
  </metadata>
  <g
     inkscape:label="Layer 1"
     inkscape:groupmode="layer"
     id="layer1"
     transform="translate(0,-262.90662)">
    <g
       id="g35420"
       transform="translate(2.9104166,51.064611)"
       clip-path="url(#clipPath56679)"
       style="opacity:0">
      <g
         id="g35355">
        <g
           id="g35291">
          <path
             style="display:inline;fill:#000000;fill-opacity:0;stroke-width:0.08910841"
             d="m 124.01987,125.64231 a 1.3229166,1.3229166 0 0 1 -1.32292,1.32292 1.3229166,1.3229166 0 0 1 -1.32291,-1.32292 1.3229166,1.3229166 0 0 1 1.32291,-1.32292 1.3229166,1.3229166 0 0 1 1.32292,1.32292 z"
             id="path4722" />
          <path
             style="display:inline;fill:#000000;fill-opacity:0;stroke-width:0.02376224"
             d="m 128.05163,151.40283 a 0.52916664,0.52916664 0 0 1 -0.52917,0.52917 0.52916664,0.52916664 0 0 1 -0.52917,-0.52917 0.52916664,0.52916664 0 0 1 0.52917,-0.52916 0.52916664,0.52916664 0 0 1 0.52917,0.52916 z"
             id="path4741" />
          <path
             style="display:inline;fill:#000000;fill-opacity:0;stroke-width:0.03564335"
             d="m 128.44581,214.50079 a 0.52916664,0.52916664 0 0 1 -0.52917,0.52917 0.52916664,0.52916664 0 0 1 -0.52917,-0.52917 0.52916664,0.52916664 0 0 1 0.52917,-0.52916 0.52916664,0.52916664 0 0 1 0.52917,0.52916 z"
             id="path4722-3-0" />
          <path
             style="display:inline;fill:#000000;fill-opacity:0;stroke-width:0.02376224"
             d="m 160.61159,189.89455 a 0.52916664,0.52916664 0 0 1 -0.52916,0.52916 0.52916664,0.52916664 0 0 1 -0.52917,-0.52916 0.52916664,0.52916664 0 0 1 0.52917,-0.52917 0.52916664,0.52916664 0 0 1 0.52916,0.52917 z"
             id="path4741-5" />
          <path
             style="display:inline;fill:#000000;fill-opacity:0;stroke-width:0.02376224"
             d="m 141.3348,102.96001 a 0.52916664,0.52916664 0 0 1 -0.52917,0.52916 0.52916664,0.52916664 0 0 1 -0.52916,-0.52916 0.52916664,0.52916664 0 0 1 0.52916,-0.52917 0.52916664,0.52916664 0 0 1 0.52917,0.52917 z"
             id="path4741-7" />
          <path
             style="display:inline;fill:#000000;fill-opacity:0;stroke-width:0.04752449"
             d="m 125.56222,257.00375 a 1.0583333,1.0583333 0 0 1 -1.05834,1.05834 1.0583333,1.0583333 0 0 1 -1.05833,-1.05834 1.0583333,1.0583333 0 0 1 1.05833,-1.05833 1.0583333,1.0583333 0 0 1 1.05834,1.05833 z"
             id="path4741-6-9" />
          <path
             style="display:inline;fill:#000000;fill-opacity:0;stroke-width:0.04752448"
             d="m 191.3275,23.393517 a 1.0583333,1.0583333 0 0 1 -1.05833,1.058333 1.0583333,1.0583333 0 0 1 -1.05834,-1.058333 1.0583333,1.0583333 0 0 1 1.05834,-1.058334 1.0583333,1.0583333 0 0 1 1.05833,1.058334 z"
             id="path4741-0-75-9" />
          <path
             style="display:inline;fill:#000000;fill-opacity:0;stroke-width:0.03564335"
             d="m 129.25536,-5.7239447 a 0.52916664,0.52916664 0 0 1 -0.52916,0.5291667 0.52916664,0.52916664 0 0 1 -0.52917,-0.5291667 0.52916664,0.52916664 0 0 1 0.52917,-0.5291666 0.52916664,0.52916664 0 0 1 0.52916,0.5291666 z"
             id="path4722-3-0-53-4" />
          <path
             style="display:inline;fill:#000000;fill-opacity:0;stroke-width:0.01188112"
             d="m 193.0755,19.495384 a 0.26458332,0.26458332 0 0 1 -0.26459,0.264584 0.26458332,0.26458332 0 0 1 -0.26458,-0.264584 0.26458332,0.26458332 0 0 1 0.26458,-0.264583 0.26458332,0.26458332 0 0 1 0.26459,0.264583 z"
             id="path4741-7-4" />
          <path
             style="display:inline;fill:#000000;fill-opacity:0;stroke-width:0.04752448"
             d="m 116.30496,50.147209 a 1.0583333,1.0583333 0 0 1 -1.05833,1.058333 1.0583333,1.0583333 0 0 1 -1.05834,-1.058333 1.0583333,1.0583333 0 0 1 1.05834,-1.058333 1.0583333,1.0583333 0 0 1 1.05833,1.058333 z"
             id="path4741-0-75-7" />
          <path
             transform="rotate(118.08353)"
             style="display:inline;fill:#000000;fill-opacity:0;stroke-width:0.01782167"
             d="m -21.137249,-167.28989 a 0.26458332,0.26458332 0 0 1 -0.264584,0.26459 0.26458332,0.26458332 0 0 1 -0.264583,-0.26459 0.26458332,0.26458332 0 0 1 0.264583,-0.26458 0.26458332,0.26458332 0 0 1 0.264584,0.26458 z"
             id="path4722-3-0-2-3" />
          <path
             transform="rotate(68.695767)"
             style="display:inline;fill:#000000;fill-opacity:0;stroke-width:0.03564335"
             d="m -59.787011,-157.43376 a 0.52916664,0.52916664 0 0 1 -0.529166,0.52917 0.52916664,0.52916664 0 0 1 -0.529167,-0.52917 0.52916664,0.52916664 0 0 1 0.529167,-0.52917 0.52916664,0.52916664 0 0 1 0.529166,0.52917 z"
             id="path4722-3-0-5-1" />
          <path
             transform="rotate(153.20843)"
             style="display:inline;fill:#000000;fill-opacity:0;stroke-width:0.02376224"
             d="m -190.18137,-5.5428214 a 0.52916664,0.52916664 0 0 1 -0.52917,0.5291666 0.52916664,0.52916664 0 0 1 -0.52917,-0.5291666 0.52916664,0.52916664 0 0 1 0.52917,-0.5291666 0.52916664,0.52916664 0 0 1 0.52917,0.5291666 z"
             id="path4741-5-8-8" />
          <path
             style="display:inline;fill:#000000;fill-opacity:0;stroke-width:0.01188112"
             d="m 194.1045,246.76135 a 0.26458332,0.26458332 0 0 1 -0.26458,0.26459 0.26458332,0.26458332 0 0 1 -0.26458,-0.26459 0.26458332,0.26458332 0 0 1 0.26458,-0.26458 0.26458332,0.26458332 0 0 1 0.26458,0.26458 z"
             id="path4741-5-26" />
          <path
             transform="rotate(-92.727357)"
             style="display:inline;fill:#000000;fill-opacity:0;stroke-width:0.04752448"
             inkscape:transform-center-x="-4.5208725"
             inkscape:transform-center-y="7.3943995"
             d="m 49.141379,137.41771 a 1.0583333,1.0583333 0 0 1 -1.058333,1.05833 1.0583333,1.0583333 0 0 1 -1.058333,-1.05833 1.0583333,1.0583333 0 0 1 1.058333,-1.05833 1.0583333,1.0583333 0 0 1 1.058333,1.05833 z"
             id="path4741-0-75-9-1" />
          <path
             transform="rotate(-92.727357)"
             style="display:inline;fill:#000000;fill-opacity:0;stroke-width:0.01188112"
             inkscape:transform-center-x="-0.50621076"
             inkscape:transform-center-y="5.0410169"
             d="m 49.140812,135.47256 a 0.26458332,0.26458332 0 0 1 -0.264584,0.26459 0.26458332,0.26458332 0 0 1 -0.264583,-0.26459 0.26458332,0.26458332 0 0 1 0.264583,-0.26458 0.26458332,0.26458332 0 0 1 0.264584,0.26458 z"
             id="path4741-7-4-6" />
          <path
             style="display:inline;fill:#000000;fill-opacity:0;stroke-width:0.01188112"
             d="m 172.76034,142.19484 a 0.26458332,0.26458332 0 0 1 -0.26458,0.26458 0.26458332,0.26458332 0 0 1 -0.26459,-0.26458 0.26458332,0.26458332 0 0 1 0.26459,-0.26458 0.26458332,0.26458332 0 0 1 0.26458,0.26458 z"
             id="path4741-5-26-94" />
          <path
             style="fill:#10052b;fill-opacity:1;stroke-width:0.45827174"
             d="M 0,-143.49336 H 169.33333 V 466.10661 H 0 Z"
             id="rect210-5" />
          <path
             style="fill:#ee0056;fill-opacity:1;stroke-width:0.08910841"
             d="m 26.373683,308.10568 a 1.3229166,1.3229166 0 0 1 -1.322917,1.32292 1.3229166,1.3229166 0 0 1 -1.322917,-1.32292 1.3229166,1.3229166 0 0 1 1.322917,-1.32291 1.3229166,1.3229166 0 0 1 1.322917,1.32291 z"
             id="path4722-8" />
          <path
             style="display:inline;fill:#ee0056;fill-opacity:1;stroke-width:0.08910841"
             d="m 143.32315,402.59601 a 1.3229166,1.3229166 0 0 1 -1.32292,1.32291 1.3229166,1.3229166 0 0 1 -1.32292,-1.32291 1.3229166,1.3229166 0 0 1 1.32292,-1.32292 1.3229166,1.3229166 0 0 1 1.32292,1.32292 z"
             id="path4722-3-8" />
          <path
             style="fill:#581255;fill-opacity:1;stroke-width:0.02376224"
             d="m 30.405441,333.86618 a 0.52916664,0.52916664 0 0 1 -0.529167,0.52917 0.52916664,0.52916664 0 0 1 -0.529167,-0.52917 0.52916664,0.52916664 0 0 1 0.529167,-0.52917 0.52916664,0.52916664 0 0 1 0.529167,0.52917 z"
             id="path4741-52" />
          <path
             style="display:inline;fill:#581255;fill-opacity:1;stroke-width:0.04752449"
             d="m 123.32588,312.15198 a 1.0583333,1.0583333 0 0 1 -1.05833,1.05833 1.0583333,1.0583333 0 0 1 -1.05834,-1.05833 1.0583333,1.0583333 0 0 1 1.05834,-1.05834 1.0583333,1.0583333 0 0 1 1.05833,1.05834 z"
             id="path4741-6-4" />
          <path
             style="display:inline;fill:#581255;fill-opacity:1;stroke-width:0.02376224"
             d="m 120.60677,314.14957 a 0.52916664,0.52916664 0 0 1 -0.52916,0.52916 0.52916664,0.52916664 0 0 1 -0.52917,-0.52916 0.52916664,0.52916664 0 0 1 0.52917,-0.52917 0.52916664,0.52916664 0 0 1 0.52916,0.52917 z"
             id="path4741-0-7" />
          <path
             style="display:inline;fill:#ee0056;fill-opacity:1;stroke-width:0.03564335"
             d="m 30.799621,396.96414 a 0.52916664,0.52916664 0 0 1 -0.529167,0.52917 0.52916664,0.52916664 0 0 1 -0.529166,-0.52917 0.52916664,0.52916664 0 0 1 0.529166,-0.52916 0.52916664,0.52916664 0 0 1 0.529167,0.52916 z"
             id="path4722-3-0-7" />
          <path
             style="display:inline;fill:#ee0056;fill-opacity:1;stroke-width:0.01782167"
             d="m 139.77906,400.50989 a 0.26458332,0.26458332 0 0 1 -0.26458,0.26458 0.26458332,0.26458332 0 0 1 -0.26458,-0.26458 0.26458332,0.26458332 0 0 1 0.26458,-0.26459 0.26458332,0.26458332 0 0 1 0.26458,0.26459 z"
             id="path4722-3-0-2-8" />
          <path
             style="display:inline;fill:#581255;fill-opacity:1;stroke-width:0.02376224"
             d="m 62.965408,372.35791 a 0.52916664,0.52916664 0 0 1 -0.529167,0.52917 0.52916664,0.52916664 0 0 1 -0.529166,-0.52917 0.52916664,0.52916664 0 0 1 0.529166,-0.52917 0.52916664,0.52916664 0 0 1 0.529167,0.52917 z"
             id="path4741-5-95" />
          <path
             style="display:inline;fill:#581255;fill-opacity:1;stroke-width:0.02376224"
             d="m 43.688613,285.4234 a 0.52916664,0.52916664 0 0 1 -0.529166,0.52917 0.52916664,0.52916664 0 0 1 -0.529167,-0.52917 0.52916664,0.52916664 0 0 1 0.529167,-0.52917 0.52916664,0.52916664 0 0 1 0.529166,0.52917 z"
             id="path4741-7-6" />
          <path
             style="display:inline;fill:#ee0056;fill-opacity:1;stroke-width:0.03564335"
             d="m 152.54575,383.50821 a 0.52916664,0.52916664 0 0 1 -0.52916,0.52917 0.52916664,0.52916664 0 0 1 -0.52917,-0.52917 0.52916664,0.52916664 0 0 1 0.52917,-0.52917 0.52916664,0.52916664 0 0 1 0.52916,0.52917 z"
             id="path4722-3-0-5-5" />
          <path
             style="display:inline;fill:#581255;fill-opacity:1;stroke-width:0.04752449"
             d="m 27.91603,439.4671 a 1.0583333,1.0583333 0 0 1 -1.058333,1.05834 1.0583333,1.0583333 0 0 1 -1.058334,-1.05834 1.0583333,1.0583333 0 0 1 1.058334,-1.05833 1.0583333,1.0583333 0 0 1 1.058333,1.05833 z"
             id="path4741-6-9-7" />
          <path
             style="display:inline;fill:#ee0056;fill-opacity:1;stroke-width:0.03564335"
             d="m 134.8292,272.69095 a 0.52916664,0.52916664 0 0 1 -0.52917,0.52917 0.52916664,0.52916664 0 0 1 -0.52916,-0.52917 0.52916664,0.52916664 0 0 1 0.52916,-0.52917 0.52916664,0.52916664 0 0 1 0.52917,0.52917 z"
             id="path4722-3-0-53-9" />
          <path
             style="display:inline;fill:#581255;fill-opacity:1;stroke-width:0.04752448"
             d="m 93.681311,205.85689 a 1.0583333,1.0583333 0 0 1 -1.058333,1.05833 1.0583333,1.0583333 0 0 1 -1.058333,-1.05833 1.0583333,1.0583333 0 0 1 1.058333,-1.05834 1.0583333,1.0583333 0 0 1 1.058333,1.05834 z"
             id="path4741-0-75-9-9" />
          <path
             style="display:inline;fill:#ee0056;fill-opacity:1;stroke-width:0.03564335"
             d="m 31.609176,176.73941 a 0.52916664,0.52916664 0 0 1 -0.529167,0.52917 0.52916664,0.52916664 0 0 1 -0.529166,-0.52917 0.52916664,0.52916664 0 0 1 0.529166,-0.52917 0.52916664,0.52916664 0 0 1 0.529167,0.52917 z"
             id="path4722-3-0-53-4-5" />
          <path
             style="display:inline;fill:#581255;fill-opacity:1;stroke-width:0.01188112"
             d="m 95.42931,201.95876 a 0.26458332,0.26458332 0 0 1 -0.264584,0.26458 0.26458332,0.26458332 0 0 1 -0.264583,-0.26458 0.26458332,0.26458332 0 0 1 0.264583,-0.26459 0.26458332,0.26458332 0 0 1 0.264584,0.26459 z"
             id="path4741-7-4-8" />
          <path
             style="display:inline;fill:#ee0056;fill-opacity:1;stroke-width:0.0891084"
             d="m 135.28509,96.601852 a 1.3229166,1.3229166 0 0 1 -1.32292,1.322917 1.3229166,1.3229166 0 0 1 -1.32291,-1.322917 1.3229166,1.3229166 0 0 1 1.32291,-1.322916 1.3229166,1.3229166 0 0 1 1.32292,1.322916 z"
             id="path4722-2-90" />
          <path
             style="display:inline;fill:#581255;fill-opacity:1;stroke-width:0.04752448"
             d="m 18.658774,232.61058 a 1.0583333,1.0583333 0 0 1 -1.058333,1.05833 1.0583333,1.0583333 0 0 1 -1.058333,-1.05833 1.0583333,1.0583333 0 0 1 1.058333,-1.05833 1.0583333,1.0583333 0 0 1 1.058333,1.05833 z"
             id="path4741-0-75-7-4" />
          <path
             transform="rotate(118.08353)"
             style="display:inline;fill:#ee0056;fill-opacity:1;stroke-width:0.01782167"
             d="m 185.81105,-167.03647 a 0.26458332,0.26458332 0 0 1 -0.26459,0.26458 0.26458332,0.26458332 0 0 1 -0.26458,-0.26458 0.26458332,0.26458332 0 0 1 0.26458,-0.26458 0.26458332,0.26458332 0 0 1 0.26459,0.26458 z"
             id="path4722-3-0-2-3-2" />
          <path
             style="display:inline;fill:#581255;fill-opacity:1;stroke-width:0.02376224"
             d="m 135.80836,226.06245 a 0.52916664,0.52916664 0 0 1 -0.52917,0.52917 0.52916664,0.52916664 0 0 1 -0.52917,-0.52917 0.52916664,0.52916664 0 0 1 0.52917,-0.52916 0.52916664,0.52916664 0 0 1 0.52917,0.52916 z"
             id="path4741-5-1-7" />
          <path
             transform="rotate(68.695767)"
             style="display:inline;fill:#581255;fill-opacity:1;stroke-width:0.04752449"
             d="m 45.51092,-71.523941 a 1.0583333,1.0583333 0 0 1 -1.058333,1.058333 1.0583333,1.0583333 0 0 1 -1.058333,-1.058333 1.0583333,1.0583333 0 0 1 1.058333,-1.058333 1.0583333,1.0583333 0 0 1 1.058333,1.058333 z"
             id="path4741-6-5-6" />
          <path
             transform="rotate(68.695767)"
             style="display:inline;fill:#581255;fill-opacity:1;stroke-width:0.02376224"
             d="m 47.37424,-69.948257 a 0.52916664,0.52916664 0 0 1 -0.529166,0.529166 0.52916664,0.52916664 0 0 1 -0.529167,-0.529166 0.52916664,0.52916664 0 0 1 0.529167,-0.529167 0.52916664,0.52916664 0 0 1 0.529166,0.529167 z"
             id="path4741-0-0-8" />
          <path
             transform="rotate(68.695767)"
             style="display:inline;fill:#581255;fill-opacity:1;stroke-width:0.02376224"
             d="m -8.8222271,-13.385362 a 0.52916664,0.52916664 0 0 1 -0.5291666,0.529167 0.52916664,0.52916664 0 0 1 -0.5291666,-0.529167 0.52916664,0.52916664 0 0 1 0.5291666,-0.529166 0.52916664,0.52916664 0 0 1 0.5291666,0.529166 z"
             id="path4741-5-8-82" />
          <path
             transform="rotate(68.695767)"
             style="display:inline;fill:#ee0056;fill-opacity:1;stroke-width:0.03564335"
             d="m 74.730812,-0.16767961 a 0.52916664,0.52916664 0 0 1 -0.529167,0.52916664 0.52916664,0.52916664 0 0 1 -0.529167,-0.52916664 0.52916664,0.52916664 0 0 1 0.529167,-0.52916664 0.52916664,0.52916664 0 0 1 0.529167,0.52916664 z"
             id="path4722-3-0-5-1-2" />
          <path
             transform="rotate(68.695767)"
             style="display:inline;fill:#ee0056;fill-opacity:1;stroke-width:0.03564335"
             d="m 57.014255,-110.98488 a 0.52916664,0.52916664 0 0 1 -0.529167,0.52917 0.52916664,0.52916664 0 0 1 -0.529166,-0.52917 0.52916664,0.52916664 0 0 1 0.529166,-0.52917 0.52916664,0.52916664 0 0 1 0.529167,0.52917 z"
             id="path4722-3-0-53-45-5" />
          <path
             transform="rotate(-173.2207)"
             style="display:inline;fill:#ee0056;fill-opacity:1;stroke-width:0.01782167"
             d="m -116.05963,82.235306 a 0.26458332,0.26458332 0 0 1 -0.26458,0.264583 0.26458332,0.26458332 0 0 1 -0.26458,-0.264583 0.26458332,0.26458332 0 0 1 0.26458,-0.264584 0.26458332,0.26458332 0 0 1 0.26458,0.264584 z"
             id="path4722-3-0-2-3-0-1" />
          <path
             transform="rotate(68.695767)"
             style="display:inline;fill:#581255;fill-opacity:1;stroke-width:0.02376224"
             d="m 4.1930887,-154.39354 a 0.52916664,0.52916664 0 0 1 -0.5291666,0.52917 0.52916664,0.52916664 0 0 1 -0.5291667,-0.52917 0.52916664,0.52916664 0 0 1 0.5291667,-0.52917 0.52916664,0.52916664 0 0 1 0.5291666,0.52917 z"
             id="path4741-5-2-0-0" />
          <path
             transform="rotate(68.695767)"
             style="display:inline;fill:#ee0056;fill-opacity:1;stroke-width:0.0445542"
             d="m -16.647486,-70.616562 a 0.66145831,0.66145831 0 0 1 -0.661459,0.661458 0.66145831,0.66145831 0 0 1 -0.661458,-0.661458 0.66145831,0.66145831 0 0 1 0.661458,-0.661458 0.66145831,0.66145831 0 0 1 0.661459,0.661458 z"
             id="path4722-3-4-5-3" />
          <path
             transform="rotate(73.41097)"
             style="display:inline;fill:#581255;fill-opacity:1;stroke-width:0.02376224"
             d="m -91.889412,-121.29148 a 0.52916664,0.52916664 0 0 1 -0.529167,0.52917 0.52916664,0.52916664 0 0 1 -0.529167,-0.52917 0.52916664,0.52916664 0 0 1 0.529167,-0.52917 0.52916664,0.52916664 0 0 1 0.529167,0.52917 z"
             id="path4741-5-9-6" />
          <path
             transform="rotate(73.41097)"
             style="display:inline;fill:#581255;fill-opacity:1;stroke-width:0.04752449"
             d="m -87.327165,-86.890572 a 1.0583333,1.0583333 0 0 1 -1.058333,1.058334 1.0583333,1.0583333 0 0 1 -1.058333,-1.058334 1.0583333,1.0583333 0 0 1 1.058333,-1.058333 1.0583333,1.0583333 0 0 1 1.058333,1.058333 z"
             id="path4741-6-9-2-3" />
          <path
             transform="rotate(73.41097)"
             style="display:inline;fill:#581255;fill-opacity:1;stroke-width:0.04752448"
             d="m -43.418714,-32.156376 a 1.0583333,1.0583333 0 0 1 -1.058333,1.058333 1.0583333,1.0583333 0 0 1 -1.058333,-1.058333 1.0583333,1.0583333 0 0 1 1.058333,-1.058333 1.0583333,1.0583333 0 0 1 1.058333,1.058333 z"
             id="path4741-0-75-96-2" />
          <path
             transform="rotate(123.8191)"
             style="display:inline;fill:#581255;fill-opacity:1;stroke-width:0.04752448"
             d="m -36.032842,-153.95395 a 1.0583333,1.0583333 0 0 1 -1.058333,1.05833 1.0583333,1.0583333 0 0 1 -1.058333,-1.05833 1.0583333,1.0583333 0 0 1 1.058333,-1.05833 1.0583333,1.0583333 0 0 1 1.058333,1.05833 z"
             id="path4741-0-75-96-8-0" />
          <path
             transform="rotate(153.20843)"
             style="display:inline;fill:#581255;fill-opacity:1;stroke-width:0.02376224"
             d="m -20.772624,-124.40548 a 0.52916664,0.52916664 0 0 1 -0.529166,0.52917 0.52916664,0.52916664 0 0 1 -0.529167,-0.52917 0.52916664,0.52916664 0 0 1 0.529167,-0.52917 0.52916664,0.52916664 0 0 1 0.529166,0.52917 z"
             id="path4741-5-8-8-5" />
          <path
             transform="rotate(157.92364)"
             style="display:inline;fill:#581255;fill-opacity:1;stroke-width:0.04752448"
             d="m -37.005082,-178.14616 a 1.0583333,1.0583333 0 0 1 -1.058334,1.05833 1.0583333,1.0583333 0 0 1 -1.058333,-1.05833 1.0583333,1.0583333 0 0 1 1.058333,-1.05834 1.0583333,1.0583333 0 0 1 1.058334,1.05834 z"
             id="path4741-0-75-96-7-1" />
          <path
             style="display:inline;fill:#ee0056;fill-opacity:1;stroke-width:0.0445542"
             d="m 97.587491,376.66885 a 0.66145831,0.66145831 0 0 1 -0.661458,0.66146 0.66145831,0.66145831 0 0 1 -0.661458,-0.66146 0.66145831,0.66145831 0 0 1 0.661458,-0.66145 0.66145831,0.66145831 0 0 1 0.661458,0.66145 z"
             id="path4722-3-4-0-0" />
          <path
             style="display:inline;fill:#581255;fill-opacity:1;stroke-width:0.01188112"
             d="m 96.458317,429.2247 a 0.26458332,0.26458332 0 0 1 -0.264584,0.26458 0.26458332,0.26458332 0 0 1 -0.264583,-0.26458 0.26458332,0.26458332 0 0 1 0.264583,-0.26458 0.26458332,0.26458332 0 0 1 0.264584,0.26458 z"
             id="path4741-5-26-9" />
          <path
             transform="rotate(-92.727357)"
             style="display:inline;fill:#581255;fill-opacity:1;stroke-width:0.04752448"
             inkscape:transform-center-x="-4.5208725"
             inkscape:transform-center-y="7.3943995"
             d="m -128.46896,31.199905 a 1.0583333,1.0583333 0 0 1 -1.05834,1.058334 1.0583333,1.0583333 0 0 1 -1.05833,-1.058334 1.0583333,1.0583333 0 0 1 1.05833,-1.058333 1.0583333,1.0583333 0 0 1 1.05834,1.058333 z"
             id="path4741-0-75-9-1-8" />
          <path
             transform="rotate(-92.727357)"
             style="display:inline;fill:#581255;fill-opacity:1;stroke-width:0.01188112"
             inkscape:transform-center-x="-0.50621076"
             inkscape:transform-center-y="5.0410169"
             d="m -128.46953,29.254761 a 0.26458332,0.26458332 0 0 1 -0.26459,0.264583 0.26458332,0.26458332 0 0 1 -0.26458,-0.264583 0.26458332,0.26458332 0 0 1 0.26458,-0.264584 0.26458332,0.26458332 0 0 1 0.26459,0.264584 z"
             id="path4741-7-4-6-8" />
          <path
             style="display:inline;fill:#ee0056;fill-opacity:1;stroke-width:0.0891084"
             d="m 41.186892,31.677349 a 1.3229166,1.3229166 0 0 1 -1.322916,1.322917 1.3229166,1.3229166 0 0 1 -1.322917,-1.322917 1.3229166,1.3229166 0 0 1 1.322917,-1.322917 1.3229166,1.3229166 0 0 1 1.322916,1.322917 z"
             id="path4722-2-9-3" />
          <path
             style="display:inline;fill:#ee0056;fill-opacity:1;stroke-width:0.0891084"
             d="m 128.18314,-69.911812 a 1.3229166,1.3229166 0 0 1 -1.32292,1.322917 1.3229166,1.3229166 0 0 1 -1.32291,-1.322917 1.3229166,1.3229166 0 0 1 1.32291,-1.322916 1.3229166,1.3229166 0 0 1 1.32292,1.322916 z"
             id="path4722-2-9-9-8" />
          <path
             transform="rotate(68.695767)"
             style="display:inline;fill:#581255;fill-opacity:1;stroke-width:0.01188112"
             d="m -56.707386,-175.36824 a 0.26458332,0.26458332 0 0 1 -0.264584,0.26458 0.26458332,0.26458332 0 0 1 -0.264583,-0.26458 0.26458332,0.26458332 0 0 1 0.264583,-0.26458 0.26458332,0.26458332 0 0 1 0.264584,0.26458 z"
             id="path4741-5-2-0-4-4" />
          <path
             style="display:inline;fill:#581255;fill-opacity:1;stroke-width:0.01188112"
             d="m 75.114155,324.6582 a 0.26458332,0.26458332 0 0 1 -0.264584,0.26459 0.26458332,0.26458332 0 0 1 -0.264583,-0.26459 0.26458332,0.26458332 0 0 1 0.264583,-0.26458 0.26458332,0.26458332 0 0 1 0.264584,0.26458 z"
             id="path4741-5-26-94-4" />
          <path
             style="display:inline;fill:#581255;fill-opacity:1;stroke-width:0.02376224"
             d="m 146.31744,174.20683 a 0.52916664,0.52916664 0 0 1 -0.52917,0.52917 0.52916664,0.52916664 0 0 1 -0.52917,-0.52917 0.52916664,0.52916664 0 0 1 0.52917,-0.52916 0.52916664,0.52916664 0 0 1 0.52917,0.52916 z"
             id="path4741-0-75-9-3-9" />
          <path
             sodipodi:nodetypes="czccc"
             inkscape:connector-curvature="0"
             id="path25024-0"
             d="m 63.552501,195.7108 c 0,0 -1.140743,-11.8024 4.294529,-11.77848 5.435273,0.024 4.29453,11.77848 4.29453,11.77848 -0.485979,-7.10419 -1.575465,-11.24116 -4.278713,-11.16876 -1.960434,-0.0168 -3.719476,2.47242 -4.310346,11.16876 z"
             style="opacity:0;fill:#2e2e30;fill-opacity:1;stroke:none;stroke-width:0.23550765px;stroke-linecap:butt;stroke-linejoin:miter;stroke-opacity:1" />
        </g>
      </g>
    </g>
    <g
       aria-label="By Mitel"
       style="font-style:normal;font-variant:normal;font-weight:normal;font-stretch:normal;font-size:5.23713541px;line-height:1.25;font-family:Nexa;-inkscape-font-specification:Nexa;letter-spacing:0px;word-spacing:0px;fill:#000000;fill-opacity:1;stroke:none;stroke-width:0.13092838"
       id="text58897">
      <path
         d="m 78.459609,458.44842 q 0.3175,0.0593 0.4826,0.24977 0.169333,0.1905 0.169333,0.4953 0,0.37676 -0.275167,0.57996 -0.275166,0.2032 -0.817033,0.2032 h -1.3208 v -2.96333 h 1.236133 q 0.4826,0 0.7493,0.19897 0.270934,0.19473 0.270934,0.5588 0,0.254 -0.135467,0.42756 -0.131233,0.17357 -0.359833,0.24977 z m -1.545167,-1.24883 v 1.1811 h 1.011767 q 0.389466,0 0.5969,-0.14817 0.211666,-0.1524 0.211666,-0.4445 0,-0.28787 -0.211666,-0.43603 -0.207434,-0.1524 -0.5969,-0.1524 z m 1.1049,2.5908 q 0.4318,0 0.651933,-0.14817 0.224367,-0.1524 0.224367,-0.46567 0,-0.31326 -0.224367,-0.46143 -0.220133,-0.14817 -0.651933,-0.14817 h -1.1049 v 1.22344 z"
         style="font-style:normal;font-variant:normal;font-weight:300;font-stretch:normal;font-size:4.23333311px;font-family:Montserrat;-inkscape-font-specification:'Montserrat Light';fill:#ffffff;fill-opacity:1;stroke-width:0.13092838"
         id="path41817" />
      <path
         d="m 81.587843,457.76685 -1.134533,2.51037 q -0.127,0.2921 -0.296333,0.41487 -0.1651,0.12276 -0.3937,0.12276 -0.1524,0 -0.287867,-0.0508 -0.131233,-0.0508 -0.224366,-0.14816 l 0.105833,-0.16087 q 0.169333,0.17357 0.410633,0.17357 0.160867,0 0.275167,-0.0889 0.1143,-0.0889 0.211667,-0.3048 l 0.118533,-0.2667 -0.994833,-2.20134 h 0.224366 l 0.884767,1.97697 0.884766,-1.97697 z"
         style="font-style:normal;font-variant:normal;font-weight:300;font-stretch:normal;font-size:4.23333311px;font-family:Montserrat;-inkscape-font-specification:'Montserrat Light';fill:#ffffff;fill-opacity:1;stroke-width:0.13092838"
         id="path41819" />
      <path
         d="m 86.008105,459.97665 -0.0042,-2.53576 -1.240367,2.14206 h -0.105833 l -1.240367,-2.1336 v 2.5273 h -0.211667 v -2.96333 h 0.182034 l 1.325033,2.29023 1.325033,-2.29023 h 0.1778 l 0.0042,2.96333 z"
         style="font-style:normal;font-variant:normal;font-weight:300;font-stretch:normal;font-size:4.23333311px;font-family:Montserrat;-inkscape-font-specification:'Montserrat Light';fill:#ffffff;fill-opacity:1;stroke-width:0.13092838"
         id="path41821" />
      <path
         d="m 87.181068,457.76685 h 0.211667 v 2.2098 h -0.211667 z m 0.105834,-0.53763 q -0.07197,0 -0.122767,-0.0466 -0.0508,-0.0508 -0.0508,-0.12276 0,-0.072 0.0508,-0.12277 0.0508,-0.0508 0.122767,-0.0508 0.07197,0 0.122766,0.0508 0.0508,0.0466 0.0508,0.11853 0,0.072 -0.0508,0.12277 -0.0508,0.0508 -0.122766,0.0508 z"
         style="font-style:normal;font-variant:normal;font-weight:300;font-stretch:normal;font-size:4.23333311px;font-family:Montserrat;-inkscape-font-specification:'Montserrat Light';fill:#ffffff;fill-opacity:1;stroke-width:0.13092838"
         id="path41823" />
      <path
         d="m 89.385445,459.83695 q -0.08043,0.0762 -0.2032,0.11854 -0.118533,0.0381 -0.249766,0.0381 -0.287867,0 -0.4445,-0.15664 -0.156634,-0.16086 -0.156634,-0.4445 v -1.44356 h -0.4064 v -0.18204 h 0.4064 v -0.4826 h 0.211667 v 0.4826 h 0.702733 v 0.18204 h -0.702733 v 1.4224 q 0,0.2159 0.1016,0.3302 0.105833,0.11006 0.309033,0.11006 0.207434,0 0.3429,-0.12276 z"
         style="font-style:normal;font-variant:normal;font-weight:300;font-stretch:normal;font-size:4.23333311px;font-family:Montserrat;-inkscape-font-specification:'Montserrat Light';fill:#ffffff;fill-opacity:1;stroke-width:0.13092838"
         id="path41825" />
      <path
         d="m 91.759948,458.92255 h -1.900766 q 0.0085,0.25824 0.131233,0.46144 0.122767,0.19896 0.3302,0.30903 0.211667,0.11007 0.474133,0.11007 0.2159,0 0.397934,-0.0762 0.186266,-0.0804 0.309033,-0.23284 l 0.122767,0.1397 q -0.143934,0.17357 -0.364067,0.2667 -0.2159,0.0931 -0.4699,0.0931 -0.3302,0 -0.588433,-0.14394 -0.258234,-0.14393 -0.4064,-0.39793 -0.143934,-0.254 -0.143934,-0.57997 0,-0.32173 0.135467,-0.57573 0.1397,-0.25823 0.381,-0.40217 0.2413,-0.14393 0.541867,-0.14393 0.300566,0 0.537633,0.14393 0.2413,0.1397 0.376767,0.3937 0.1397,0.254 0.1397,0.57574 z m -1.049866,-0.98636 q -0.232834,0 -0.4191,0.10583 -0.186267,0.1016 -0.300567,0.2921 -0.110067,0.18627 -0.127,0.42333 h 1.693333 q -0.0127,-0.23706 -0.127,-0.42333 -0.1143,-0.18627 -0.300566,-0.2921 -0.186267,-0.10583 -0.4191,-0.10583 z"
         style="font-style:normal;font-variant:normal;font-weight:300;font-stretch:normal;font-size:4.23333311px;font-family:Montserrat;-inkscape-font-specification:'Montserrat Light';fill:#ffffff;fill-opacity:1;stroke-width:0.13092838"
         id="path41827" />
      <path
         d="m 92.423125,456.83552 h 0.211667 v 3.14113 h -0.211667 z"
         style="font-style:normal;font-variant:normal;font-weight:300;font-stretch:normal;font-size:4.23333311px;font-family:Montserrat;-inkscape-font-specification:'Montserrat Light';fill:#ffffff;fill-opacity:1;stroke-width:0.13092838"
         id="path41829" />
    </g>
    <g
       id="g32203"
       style="opacity:0">
      <path
         sodipodi:nodetypes="ccccc"
         inkscape:connector-curvature="0"
         id="path60662"
         d="m 57.5138,360.53865 c 0.495994,-0.0661 7.803626,4.06757 7.935891,3.96836 0.132265,-0.0992 -7.935891,3.96836 -7.935891,3.96836 l 2.645297,-3.96836 z"
         style="fill:#ee0056;fill-opacity:1;stroke:none;stroke-width:0.26454344px;stroke-linecap:butt;stroke-linejoin:miter;stroke-opacity:1" />
      <path
         sodipodi:nodetypes="ccccc"
         inkscape:connector-curvature="0"
         id="path60666"
         d="m 57.927931,360.82542 2.455041,3.6011 c 0,0 4.816556,0.11695 4.582744,0.0468 -0.233815,-0.0702 -7.037785,-3.64785 -7.037785,-3.64785 z"
         style="fill:#ffffff;fill-opacity:1;stroke:none;stroke-width:0.26454344px;stroke-linecap:butt;stroke-linejoin:miter;stroke-opacity:1" />
    </g>
    <path
       style="fill:#e87aff;fill-opacity:0.08812262;stroke:none;stroke-width:0.27013901px;stroke-linecap:butt;stroke-linejoin:miter;stroke-opacity:1;opacity:0"
       d="m -78.58841,213.12033 c 0,0 75.16805,-7.31133 140.377111,51.29023 45.729459,41.09576 -70.279281,-8.62269 -114.651761,-34.38733 -54.19897,-17.52208 -47.48241,-25.11013 -47.48241,-25.11013 z"
       id="path41651-8-1-3"
       inkscape:connector-curvature="0"
       sodipodi:nodetypes="csccc"
       clip-path="url(#clipPath67704-1)"
       transform="rotate(140.41877,65.628838,366.72636)" />
    <path
       style="fill:#ee0056;fill-opacity:1;stroke:none;stroke-width:0.26458332px;stroke-linecap:butt;stroke-linejoin:miter;stroke-opacity:1"
       d="m 22.783156,307.33004 c -0.109975,-2.46884 0.590923,-5.12088 2.028629,-7.13093 0.932412,-1.30359 2.478679,-2.10737 3.951561,-2.73933 3.309385,-1.41993 6.97931,-2.07279 10.578434,-2.19335 5.848659,-0.19592 11.608365,1.50268 17.390179,2.4059 6.071687,0.9485 12.025374,2.84647 18.162511,3.16363 6.452923,0.33349 12.962388,-0.29123 19.338226,-1.3401 4.35675,-0.71671 8.456784,-2.6349 12.811204,-3.36564 4.33251,-0.72706 7.52513,0.75593 13.1416,-0.99575 5.10462,-1.52776 11.34391,-3.37639 15.96835,-0.72956 6.39967,3.6629 11.1071,12.23373 10.3219,19.56558 -0.56754,5.29944 -6.83796,8.17734 -10.28612,12.24137 -4.63908,5.46765 -5.5372,18.1441 -13.99544,16.33629 -7.86268,-1.68051 -38.372427,-4.94603 -42.772404,-4.86057 -38.276227,-0.92037 -46.773949,3.94568 -54.557957,-2.21147 -4.120469,-3.25929 0.298175,-10.13582 -0.101569,-15.18018 -0.345382,-4.35836 -1.716101,-9.41695 -1.979104,-12.96589 z"
       id="path22797"
       inkscape:connector-curvature="0"
       sodipodi:nodetypes="caaaaaaacaaascsac" />
    <g
       transform="rotate(-45,172.27543,223.62245)"
       id="g60395"
       clip-path="url(#clipPath65246)">
      <g
         id="g60369">
        <path
           transform="matrix(0.00374159,-0.999993,0.99995529,0.00945559,0,0)"
           style="fill:#ffffff;fill-opacity:0.24309393;stroke:none;stroke-width:0.32384101;stroke-opacity:0.14176247"
           d="m -263.43625,82.105965 h 2.34278 c 1.35691,0 2.44928,1.869793 2.44928,4.192362 0,2.322569 -1.09237,4.192362 -2.44928,4.192362 h -2.34278 c -1.3569,0 -2.44928,-1.869793 -2.44928,-4.192362 0,-2.322569 1.09238,-4.192362 2.44928,-4.192362 z"
           id="rect45880" />
        <path
           style="fill:#c95d0d;fill-opacity:0.98342542;stroke:none;stroke-width:0.25492698;stroke-opacity:0.14176247"
           d="m 81.793186,261.59586 h 6.933425 c 0.253843,0 0.458202,0.34059 0.458202,0.76367 0,0.42307 -0.204359,0.76367 -0.458202,0.76367 h -6.933425 c -0.253844,0 -0.458202,-0.3406 -0.458202,-0.76367 0,-0.42308 0.204358,-0.76367 0.458202,-0.76367 z"
           id="rect45882" />
        <path
           style="fill:#c9ce0d;fill-opacity:0.98342542;stroke:none;stroke-width:0.2046217;stroke-opacity:0.14176247"
           d="m 82.453104,262.62619 h 5.565236 c 0.203752,0 0.367784,0.27339 0.367784,0.61297 0,0.33959 -0.164032,0.61298 -0.367784,0.61298 h -5.565236 c -0.203753,0 -0.367784,-0.27339 -0.367784,-0.61298 0,-0.33958 0.164031,-0.61297 0.367784,-0.61297 z"
           id="rect45882-3" />
        <path
           style="fill:#ffffff;fill-opacity:0.98342542;stroke:none;stroke-width:0.15431643;stroke-opacity:0.14176247"
           d="m 83.212539,263.5806 h 4.197049 c 0.153661,0 0.277366,0.20617 0.277366,0.46227 0,0.25611 -0.123705,0.46228 -0.277366,0.46228 h -4.197049 c -0.153661,0 -0.277366,-0.20617 -0.277366,-0.46228 0,-0.2561 0.123705,-0.46227 0.277366,-0.46227 z"
           id="rect45882-3-0" />
      </g>
      <g
         id="g60379">
        <path
           style="fill:#20a2db;fill-opacity:1;stroke:none;stroke-width:0.11379579;stroke-opacity:0.14176247"
           d="m 91.471265,249.36189 c 0.64778,0 1.169278,1.77932 1.169278,3.9895 v 0.79057 c 0,2.21018 -0.521498,3.9895 -1.169278,3.9895 -0.64778,0 -1.169278,-1.77932 -1.169278,-3.9895 v -0.79057 c 0,-2.21018 0.521498,-3.9895 1.169278,-3.9895 z"
           id="rect45798-5-2" />
        <path
           style="fill:#20a2db;fill-opacity:1;stroke:none;stroke-width:0.11379579;stroke-opacity:0.14176247"
           d="m 79.169751,249.36034 c 0.647781,0 1.169279,1.77931 1.169279,3.98949 v 0.79058 c 0,2.21018 -0.521498,3.98949 -1.169279,3.98949 -0.64778,0 -1.169278,-1.77931 -1.169278,-3.98949 v -0.79058 c 0,-2.21018 0.521498,-3.98949 1.169278,-3.98949 z"
           id="rect45798-5" />
        <path
           style="fill:#20a2db;fill-opacity:1;stroke:none;stroke-width:0.26382461;stroke-opacity:0.14176247"
           d="m 81.632628,252.7429 h 7.518713 c 1.399133,0 2.525511,1.77932 2.525511,3.9895 v 0.79058 c 0,2.21018 -1.126378,3.98949 -2.525511,3.98949 h -7.518713 c -1.399133,0 -2.525511,-1.77931 -2.525511,-3.98949 v -0.79058 c 0,-2.21018 1.126378,-3.9895 2.525511,-3.9895 z"
           id="rect45798" />
        <path
           transform="matrix(1.6849376,0.04273917,-0.05492549,2.165368,79.300179,-351.52879)"
           style="fill:#c3c3c7;fill-opacity:1;stroke:none;stroke-width:0.26458332;stroke-opacity:0.14176247"
           inkscape:transform-center-x="0.044802277"
           inkscape:transform-center-y="-2.0735658"
           d="m 17.60638,281.19767 c -0.332149,0.60354 -9.4827254,0.79114 -9.8393303,0.20172 -0.3566048,-0.58942 4.0562223,-8.60785 4.7449753,-8.62197 0.688753,-0.0141 5.426503,7.81672 5.094355,8.42025 z"
           id="path45794" />
        <path
           style="fill:#ffffff;fill-opacity:1;stroke:none;stroke-width:0.33072168;stroke-opacity:0.14176247"
           d="m 88.02017,257.49359 a 2.6428206,0.78251112 0 0 1 -2.64282,0.78251 2.6428206,0.78251112 0 0 1 -2.642821,-0.78251 2.6428206,0.78251112 0 0 1 2.642821,-0.78251 2.6428206,0.78251112 0 0 1 2.64282,0.78251 z"
           id="path45836" />
        <path
           style="fill:#153765;fill-opacity:1;stroke:none;stroke-width:0.49546435;stroke-opacity:0.14176247"
           d="m 90.045837,251.25414 a 4.6301036,4.6301036 0 0 1 -4.630104,4.6301 4.6301036,4.6301036 0 0 1 -4.630103,-4.6301 4.6301036,4.6301036 0 0 1 4.630103,-4.63011 4.6301036,4.6301036 0 0 1 4.630104,4.63011 z"
           id="path45838" />
        <path
           transform="matrix(0.33215712,0.00759595,-0.01082764,0.3848468,84.212324,135.31012)"
           style="fill:#ffffff;fill-opacity:1;stroke:none;stroke-width:0.26458332;stroke-opacity:0.14176247"
           inkscape:transform-center-x="0.0088333335"
           inkscape:transform-center-y="-0.36852648"
           d="m 17.60638,281.19767 c -0.332149,0.60354 -9.4827254,0.79114 -9.8393303,0.20172 -0.3566048,-0.58942 4.0562223,-8.60785 4.7449753,-8.62197 0.688753,-0.0141 5.426503,7.81672 5.094355,8.42025 z"
           id="path45794-8" />
        <path
           style="fill:#ffffff;fill-opacity:1;stroke:none;stroke-width:0.44876197px;stroke-linecap:butt;stroke-linejoin:miter;stroke-opacity:1"
           d="m 85.582917,248.30226 c 1.671799,-0.0294 1.947243,1.48044 2.116192,2.28169 0.259225,1.22941 0.686392,-1.19833 0.380431,-1.68752 -0.452801,-0.72398 -1.682568,-0.67907 -2.496623,-0.59414 z"
           id="path45932"
           inkscape:connector-curvature="0"
           sodipodi:nodetypes="csacc" />
      </g>
    </g>
    <g
       id="g22769"
       transform="translate(26.541008,49.679901)">
      <g
         aria-label="MiCosmic"
         style="font-style:normal;font-variant:normal;font-weight:bold;font-stretch:normal;font-size:21.51944923px;line-height:1.25;font-family:Montserrat;-inkscape-font-specification:'Montserrat Bold';letter-spacing:0px;word-spacing:0px;fill:#000000;fill-opacity:1;stroke:none;stroke-width:0.26458332"
         id="text22658">
        <path
           d="m 11.677652,264.1163 -0.01905,-8.001 -3.9243008,6.5913 H 6.343651 l -3.9052506,-6.41985 v 7.82955 h -2.89560049 v -13.335 H 2.0955003 l 4.9911008,8.28675 4.9149009,-8.28675 h 2.53365 l 0.0381,13.335 z"
           style="font-size:19.05000305px;fill:#ffffff;fill-opacity:1;stroke-width:0.26458332"
           id="path41753" />
        <path
           d="m 17.52749,253.8674 h 2.971801 v 10.2489 H 17.52749 Z m 1.485901,-1.42875 q -0.81915,0 -1.333501,-0.47625 -0.51435,-0.47625 -0.51435,-1.1811 0,-0.70485 0.51435,-1.1811 0.514351,-0.47625 1.333501,-0.47625 0.81915,0 1.3335,0.4572 0.51435,0.4572 0.51435,1.143 0,0.74295 -0.51435,1.23825 -0.51435,0.47625 -1.3335,0.47625 z"
           style="font-size:19.05000305px;fill:#ffffff;fill-opacity:1;stroke-width:0.26458332"
           id="path41755" />
        <path
           d="m 29.848675,264.3449 q -2.038351,0 -3.695701,-0.8763 -1.6383,-0.89535 -2.5908,-2.45745 -0.93345,-1.58115 -0.93345,-3.56235 0,-1.9812 0.93345,-3.5433 0.9525,-1.58115 2.5908,-2.45745 1.65735,-0.89535 3.714751,-0.89535 1.73355,0 3.1242,0.6096 1.4097,0.6096 2.362201,1.7526 l -1.981201,1.8288 q -1.35255,-1.5621 -3.3528,-1.5621 -1.23825,0 -2.209801,0.55245 -0.97155,0.5334 -1.524,1.50495 -0.5334,0.97155 -0.5334,2.2098 0,1.23825 0.5334,2.2098 0.55245,0.97155 1.524,1.524 0.971551,0.5334 2.209801,0.5334 2.00025,0 3.3528,-1.58115 l 1.981201,1.8288 q -0.952501,1.16205 -2.362201,1.77165 -1.4097,0.6096 -3.14325,0.6096 z"
           style="font-size:19.05000305px;fill:#ffffff;fill-opacity:1;stroke-width:0.26458332"
           id="path41757" />
        <path
           d="m 41.714743,264.2687 q -1.619251,0 -2.914651,-0.66675 -1.27635,-0.6858 -2.00025,-1.88595 -0.7239,-1.20015 -0.7239,-2.72415 0,-1.524 0.7239,-2.72415 0.7239,-1.20015 2.00025,-1.8669 1.2954,-0.6858 2.914651,-0.6858 1.61925,0 2.8956,0.6858 1.27635,0.66675 2.000251,1.8669 0.7239,1.20015 0.7239,2.72415 0,1.524 -0.7239,2.72415 -0.723901,1.20015 -2.000251,1.88595 -1.27635,0.66675 -2.8956,0.66675 z m 0,-2.4384 q 1.143,0 1.8669,-0.762 0.74295,-0.78105 0.74295,-2.07645 0,-1.2954 -0.74295,-2.0574 -0.7239,-0.78105 -1.8669,-0.78105 -1.143,0 -1.885951,0.78105 -0.74295,0.762 -0.74295,2.0574 0,1.2954 0.74295,2.07645 0.742951,0.762 1.885951,0.762 z"
           style="font-size:19.05000305px;fill:#ffffff;fill-opacity:1;stroke-width:0.26458332"
           id="path41759" />
        <path
           d="m 52.750352,264.2687 q -1.27635,0 -2.495551,-0.3048 -1.2192,-0.32385 -1.9431,-0.8001 l 0.9906,-2.1336 q 0.6858,0.43815 1.657351,0.7239 0.97155,0.2667 1.905,0.2667 1.88595,0 1.88595,-0.93345 0,-0.43815 -0.51435,-0.62865 -0.51435,-0.1905 -1.58115,-0.32385 -1.2573,-0.1905 -2.076451,-0.43815 -0.81915,-0.24765 -1.42875,-0.8763 -0.59055,-0.62865 -0.59055,-1.7907 0,-0.97155 0.55245,-1.7145 0.5715,-0.762 1.6383,-1.1811 1.085851,-0.4191 2.552701,-0.4191 1.08585,0 2.15265,0.24765 1.08585,0.2286 1.790701,0.6477 l -0.990601,2.11455 q -1.35255,-0.762 -2.95275,-0.762 -0.9525,0 -1.42875,0.2667 -0.47625,0.2667 -0.47625,0.6858 0,0.47625 0.51435,0.66675 0.51435,0.1905 1.6383,0.36195 1.2573,0.20955 2.0574,0.4572 0.8001,0.2286 1.39065,0.85725 0.590551,0.62865 0.590551,1.7526 0,0.9525 -0.571501,1.69545 -0.5715,0.74295 -1.6764,1.16205 -1.08585,0.40005 -2.5908,0.40005 z"
           style="font-size:19.05000305px;fill:#ffffff;fill-opacity:1;stroke-width:0.26458332"
           id="path41761" />
        <path
           d="m 72.548065,253.715 q 1.92405,0 3.048001,1.143 1.143,1.12395 1.143,3.3909 v 5.8674 h -2.971801 v -5.4102 q 0,-1.2192 -0.51435,-1.80975 -0.4953,-0.6096 -1.42875,-0.6096 -1.04775,0 -1.65735,0.6858 -0.6096,0.66675 -0.6096,2.00025 v 5.1435 h -2.971801 v -5.4102 q 0,-2.41935 -1.9431,-2.41935 -1.0287,0 -1.6383,0.6858 -0.609601,0.66675 -0.609601,2.00025 v 5.1435 h -2.9718 v -10.2489 h 2.83845 v 1.1811 q 0.571501,-0.6477 1.390651,-0.9906 0.8382,-0.3429 1.8288,-0.3429 1.08585,0 1.96215,0.43815 0.8763,0.4191 1.4097,1.23825 0.628651,-0.8001 1.581151,-1.23825 0.97155,-0.43815 2.11455,-0.43815 z"
           style="font-size:19.05000305px;fill:#ffffff;fill-opacity:1;stroke-width:0.26458332"
           id="path41763" />
        <path
           d="m 79.402792,253.8674 h 2.9718 v 10.2489 h -2.9718 z m 1.4859,-1.42875 q -0.81915,0 -1.3335,-0.47625 -0.51435,-0.47625 -0.51435,-1.1811 0,-0.70485 0.51435,-1.1811 0.51435,-0.47625 1.3335,-0.47625 0.81915,0 1.3335,0.4572 0.51435,0.4572 0.51435,1.143 0,0.74295 -0.51435,1.23825 -0.51435,0.47625 -1.3335,0.47625 z"
           style="font-size:19.05000305px;fill:#ffffff;fill-opacity:1;stroke-width:0.26458332"
           id="path41765" />
        <path
           d="m 90.085674,264.2687 q -1.6383,0 -2.952751,-0.66675 -1.2954,-0.6858 -2.03835,-1.88595 -0.7239,-1.20015 -0.7239,-2.72415 0,-1.524 0.7239,-2.72415 0.74295,-1.20015 2.03835,-1.8669 1.314451,-0.6858 2.952751,-0.6858 1.61925,0 2.8194,0.6858 1.219201,0.66675 1.771651,1.92405 l -2.305051,1.23825 q -0.8001,-1.4097 -2.30505,-1.4097 -1.16205,0 -1.92405,0.762 -0.762001,0.762 -0.762001,2.07645 0,1.31445 0.762001,2.07645 0.762,0.762 1.92405,0.762 1.524,0 2.30505,-1.4097 l 2.305051,1.2573 q -0.55245,1.2192 -1.771651,1.905 -1.20015,0.6858 -2.8194,0.6858 z"
           style="font-size:19.05000305px;fill:#ffffff;fill-opacity:1;stroke-width:0.26458332"
           id="path41767" />
      </g>
      <g
         aria-label="Journey"
         style="font-style:normal;font-variant:normal;font-weight:bold;font-stretch:normal;font-size:10.58333302px;line-height:1.25;font-family:Montserrat;-inkscape-font-specification:'Montserrat Bold';letter-spacing:0px;word-spacing:0px;fill:#000000;fill-opacity:1;stroke:none;stroke-width:0.26458332"
         id="text22746">
        <path
           d="m 5.1561999,284.95693 q -1.8033999,0 -3.3273999,-0.6604 -1.4986,-0.6858 -2.46379999,-1.9304 L 1.651,279.62293 q 1.4478,1.9558 3.3019999,1.9558 2.5146,0 2.5146,-2.9464 v -8.4582 H 1.2192 v -3.302 H 11.557 v 11.5316 q 0,3.2766 -1.6256001,4.9276 -1.6256,1.6256 -4.7752,1.6256 z"
           style="font-size:25.39999962px;fill:#ffffff;fill-opacity:1;stroke-width:0.26458332"
           id="path41770" />
        <path
           d="m 21.844396,284.85533 q -2.159,0 -3.8862,-0.889 -1.7018,-0.9144 -2.667,-2.5146 -0.9652,-1.6002 -0.9652,-3.6322 0,-2.032 0.9652,-3.6322 0.9652,-1.6002 2.667,-2.4892 1.7272,-0.9144 3.8862,-0.9144 2.159,0 3.8608,0.9144 1.7018,0.889 2.667,2.4892 0.9652,1.6002 0.9652,3.6322 0,2.032 -0.9652,3.6322 -0.9652,1.6002 -2.667,2.5146 -1.7018,0.889 -3.8608,0.889 z m 0,-3.2512 q 1.524,0 2.4892,-1.016 0.9906,-1.0414 0.9906,-2.7686 0,-1.7272 -0.9906,-2.7432 -0.9652,-1.0414 -2.4892,-1.0414 -1.524,0 -2.5146,1.0414 -0.9906,1.016 -0.9906,2.7432 0,1.7272 0.9906,2.7686 0.9906,1.016 2.5146,1.016 z"
           style="font-size:25.39999962px;fill:#ffffff;fill-opacity:1;stroke-width:0.26458332"
           id="path41772" />
        <path
           d="m 45.727937,270.98693 v 13.6652 h -3.7592 v -1.6256 q -0.7874,0.889 -1.8796,1.3716 -1.0922,0.4572 -2.3622,0.4572 -2.6924,0 -4.2672,-1.5494 -1.5748,-1.5494 -1.5748,-4.5974 v -7.7216 h 3.9624 v 7.1374 q 0,3.302 2.7686,3.302 1.4224,0 2.286,-0.9144 0.8636,-0.9398 0.8636,-2.7686 v -6.7564 z"
           style="font-size:25.39999962px;fill:#ffffff;fill-opacity:1;stroke-width:0.26458332"
           id="path41774" />
        <path
           d="m 53.208237,272.79033 q 0.7112,-0.9906 1.905,-1.4986 1.2192,-0.508 2.794,-0.508 v 3.6576 q -0.6604,-0.0508 -0.889,-0.0508 -1.7018,0 -2.667,0.9652 -0.9652,0.9398 -0.9652,2.8448 v 6.4516 h -3.9624 v -13.6652 h 3.7846 z"
           style="font-size:25.39999962px;fill:#ffffff;fill-opacity:1;stroke-width:0.26458332"
           id="path41776" />
        <path
           d="m 68.593889,270.78373 q 2.54,0 4.0894,1.524 1.5748,1.524 1.5748,4.5212 v 7.8232 h -3.9624 v -7.2136 q 0,-1.6256 -0.7112,-2.413 -0.7112,-0.8128 -2.0574,-0.8128 -1.4986,0 -2.3876,0.9398 -0.889,0.9144 -0.889,2.7432 v 6.7564 h -3.9624 v -13.6652 h 3.7846 v 1.6002 q 0.7874,-0.8636 1.9558,-1.3208 1.1684,-0.4826 2.5654,-0.4826 z"
           style="font-size:25.39999962px;fill:#ffffff;fill-opacity:1;stroke-width:0.26458332"
           id="path41778" />
        <path
           d="m 91.384437,277.87033 q 0,0.0762 -0.0762,1.0668 h -10.3378 q 0.2794,1.27 1.3208,2.0066 1.0414,0.7366 2.5908,0.7366 1.0668,0 1.8796,-0.3048 0.8382,-0.3302 1.5494,-1.016 l 2.1082,2.286 q -1.9304,2.2098 -5.6388,2.2098 -2.3114,0 -4.0894,-0.889 -1.778,-0.9144 -2.7432,-2.5146 -0.9652,-1.6002 -0.9652,-3.6322 0,-2.0066 0.9398,-3.6068 0.9652,-1.6256 2.6162,-2.5146 1.6764,-0.9144 3.7338,-0.9144 2.0066,0 3.6322,0.8636 1.6256,0.8636 2.54,2.4892 0.9398,1.6002 0.9398,3.7338 z m -7.0866,-4.0894 q -1.3462,0 -2.2606,0.762 -0.9144,0.762 -1.1176,2.0828 h 6.731 q -0.2032,-1.2954 -1.1176,-2.0574 -0.9144,-0.7874 -2.2352,-0.7874 z"
           style="font-size:25.39999962px;fill:#ffffff;fill-opacity:1;stroke-width:0.26458332"
           id="path41780" />
        <path
           d="m 107.33802,270.98693 -6.1722,14.5034 q -0.9398,2.3622 -2.336803,3.3274 -1.3716,0.9652 -3.3274,0.9652 -1.0668,0 -2.1082,-0.3302 -1.0414,-0.3302 -1.7018,-0.9144 l 1.4478,-2.8194 q 0.4572,0.4064 1.0414,0.635 0.6096,0.2286 1.1938,0.2286 0.8128,0 1.3208,-0.4064 0.508,-0.381 0.9144,-1.2954 l 0.0508,-0.127 -5.9182,-13.7668 h 4.0894 l 3.8354,9.271 3.860803,-9.271 z"
           style="font-size:25.39999962px;fill:#ffffff;fill-opacity:1;stroke-width:0.26458332"
           id="path41782" />
      </g>
    </g>
    <g
       transform="matrix(0.45015789,0,0,0.45015789,4.0216602,328.39113)"
       id="g36816"
       style="opacity:0">
      <g
         id="g36806"
         style="">
        <path
           style="opacity:0;fill:#e51515;fill-opacity:1;stroke:#000000;stroke-width:0.68054384;stroke-opacity:1"
           d="m 6.0775946,270.12918 h 7.6702514 c 0.449258,0 0.810935,1.22261 0.810935,2.74127 v 12.16472 c 0,1.51866 -0.361677,2.74127 -0.810935,2.74127 H 6.0775946 c -0.4492582,0 -0.8109353,-1.22261 -0.8109353,-2.74127 v -12.16472 c 0,-1.51866 0.3616771,-2.74127 0.8109353,-2.74127 z"
           id="rect27302" />
        <path
           style="opacity:0;fill:none;fill-opacity:1;stroke:#000000;stroke-width:0.68054384;stroke-opacity:1"
           d="m 20.944991,269.7009 h 11.640522 c 0.449258,0 0.810935,1.22261 0.810935,2.74127 v 14.64903 c 0,1.51867 -0.361677,2.74128 -0.810935,2.74128 H 20.944991 c -0.449258,0 -0.810935,-1.22261 -0.810935,-2.74128 v -14.64903 c 0,-1.51866 0.361677,-2.74127 0.810935,-2.74127 z"
           id="rect27304" />
        <path
           style="fill:#ee0056;fill-opacity:1;stroke:none;stroke-width:0.68054378px;stroke-linecap:butt;stroke-linejoin:miter;stroke-opacity:1"
           d="m 19.892512,263.61455 c -1.840305,0.27719 -10.163201,10.43058 -10.6555821,10.9693 0,0 -7.1264914,-0.55242 -8.1094884,0 -0.86409295,0.48562 -0.88841608,10.45144 0,10.96529 0.9610025,0.55583 8.1094884,0 8.1094884,0 0,0 9.3548201,11.32677 10.8126511,10.96528 1.457831,-0.36149 1.392722,-32.51947 0,-32.89586 -0.04539,-0.0123 -0.0977,-0.0129 -0.157069,-0.004 z"
           id="path27384"
           inkscape:connector-curvature="0" />
        <g
           id="g28270"
           transform="translate(5.8208336,-0.692107)"
           style="fill:#ee0056;fill-opacity:1">
          <g
             id="g28265"
             style="fill:#ee0056;fill-opacity:1">
            <path
               style="fill:#ee0056;fill-opacity:1;stroke:none;stroke-width:0.44281027px;stroke-linecap:butt;stroke-linejoin:miter;stroke-opacity:1"
               d="m 29.750528,276.33816 c 0,0 0.524884,-0.52457 1.272054,0.2226 0.747177,0.74717 0.222595,1.27205 0.222595,1.27205 l -7.346585,7.34659 c 0,0 -0.524879,0.52458 -1.272054,-0.2226 -0.74717,-0.74717 -0.222595,-1.27205 -0.222595,-1.27205 z"
               id="path27397-3-9-3"
               inkscape:connector-curvature="0"
               sodipodi:nodetypes="czcczcc" />
            <path
               style="fill:#ee0056;fill-opacity:1;stroke:none;stroke-width:0.44281027px;stroke-linecap:butt;stroke-linejoin:miter;stroke-opacity:1"
               d="m 22.403943,277.83281 c 0,0 -0.524575,-0.52488 0.222595,-1.27205 0.747177,-0.74718 1.272054,-0.2226 1.272054,-0.2226 l 7.346585,7.34659 c 0,0 0.52458,0.52488 -0.222595,1.27205 -0.74717,0.74717 -1.272054,0.2226 -1.272054,0.2226 z"
               id="path27397-3-9-1"
               inkscape:connector-curvature="0"
               sodipodi:nodetypes="czcczcc" />
          </g>
        </g>
      </g>
    </g>
    <g
       aria-label="Launch"
       style="font-style:normal;font-variant:normal;font-weight:bold;font-stretch:normal;font-size:10.58333302px;line-height:1.25;font-family:Montserrat;-inkscape-font-specification:'Montserrat Bold';letter-spacing:0px;word-spacing:0px;fill:#000000;fill-opacity:1;stroke:none;stroke-width:0.26458332"
       id="text21991">
      <path
         d="m 75.666594,359.93462 h 1.375833 v 6.24417 h 3.8735 v 1.16417 h -5.249333 z"
         style="font-style:normal;font-variant:normal;font-weight:600;font-stretch:normal;font-family:Montserrat;-inkscape-font-specification:'Montserrat Semi-Bold';fill:#ffffff;fill-opacity:1;stroke-width:0.26458332"
         id="path22060" />
      <path
         d="m 84.106471,361.62796 q 1.248834,0 1.905,0.60325 0.66675,0.59266 0.66675,1.79916 v 3.31259 h -1.248833 v -0.68792 q -0.243417,0.37042 -0.6985,0.5715 -0.4445,0.1905 -1.0795,0.1905 -0.635,0 -1.11125,-0.21167 -0.47625,-0.22225 -0.740833,-0.60325 -0.254,-0.39158 -0.254,-0.87841 0,-0.762 0.560916,-1.21709 0.5715,-0.46566 1.788584,-0.46566 h 1.4605 v -0.0847 q 0,-0.59267 -0.359834,-0.91017 -0.34925,-0.3175 -1.04775,-0.3175 -0.47625,0 -0.941916,0.14817 -0.455084,0.14817 -0.772584,0.41275 l -0.518583,-0.96308 q 0.4445,-0.33867 1.068917,-0.51859 0.624416,-0.17991 1.322916,-0.17991 z m -0.179916,4.826 q 0.497416,0 0.878416,-0.22225 0.391584,-0.23284 0.550334,-0.65617 v -0.65617 h -1.36525 q -1.143,0 -1.143,0.75142 0,0.35983 0.28575,0.5715 0.28575,0.21167 0.79375,0.21167 z"
         style="font-style:normal;font-variant:normal;font-weight:600;font-stretch:normal;font-family:Montserrat;-inkscape-font-specification:'Montserrat Semi-Bold';fill:#ffffff;fill-opacity:1;stroke-width:0.26458332"
         id="path22062" />
      <path
         d="m 93.847603,361.69146 v 5.6515 h -1.259417 v -0.71967 q -0.3175,0.381 -0.79375,0.59267 -0.47625,0.20108 -1.026583,0.20108 -1.132417,0 -1.788583,-0.62442 -0.645584,-0.635 -0.645584,-1.87325 v -3.22791 h 1.322917 v 3.048 q 0,0.762 0.338667,1.143 0.34925,0.37041 0.98425,0.37041 0.709083,0 1.121833,-0.43391 0.423333,-0.4445 0.423333,-1.27 v -2.8575 z"
         style="font-style:normal;font-variant:normal;font-weight:600;font-stretch:normal;font-family:Montserrat;-inkscape-font-specification:'Montserrat Semi-Bold';fill:#ffffff;fill-opacity:1;stroke-width:0.26458332"
         id="path22064" />
      <path
         d="m 98.796799,361.62796 q 1.068916,0 1.714501,0.62441 0.64558,0.62442 0.64558,1.85209 v 3.2385 h -1.322915 v -3.06917 q 0,-0.74083 -0.349249,-1.11125 -0.34925,-0.381 -0.994834,-0.381 -0.73025,0 -1.153583,0.4445 -0.423333,0.43392 -0.423333,1.25942 v 2.8575 h -1.322917 v -5.6515 h 1.259417 v 0.73025 q 0.328083,-0.39159 0.8255,-0.59267 0.497416,-0.20108 1.121833,-0.20108 z"
         style="font-style:normal;font-variant:normal;font-weight:600;font-stretch:normal;font-family:Montserrat;-inkscape-font-specification:'Montserrat Semi-Bold';fill:#ffffff;fill-opacity:1;stroke-width:0.26458332"
         id="path22066" />
      <path
         d="m 105.50035,367.41704 q -0.87842,0 -1.57692,-0.37042 -0.6985,-0.37041 -1.09008,-1.02658 -0.39158,-0.66675 -0.39158,-1.50283 0,-0.83609 0.39158,-1.49225 0.39158,-0.65617 1.0795,-1.02659 0.6985,-0.37041 1.5875,-0.37041 0.83608,0 1.4605,0.33866 0.635,0.33867 0.9525,0.97367 l -1.016,0.59267 q -0.24342,-0.39159 -0.61383,-0.58209 -0.35984,-0.20108 -0.79375,-0.20108 -0.74084,0 -1.22767,0.48683 -0.48683,0.47625 -0.48683,1.28059 0,0.80433 0.47625,1.29116 0.48683,0.47625 1.23825,0.47625 0.43391,0 0.79375,-0.1905 0.37041,-0.20108 0.61383,-0.59266 l 1.016,0.59266 q -0.32809,0.635 -0.96309,0.98425 -0.62441,0.33867 -1.44991,0.33867 z"
         style="font-style:normal;font-variant:normal;font-weight:600;font-stretch:normal;font-family:Montserrat;-inkscape-font-specification:'Montserrat Semi-Bold';fill:#ffffff;fill-opacity:1;stroke-width:0.26458332"
         id="path22068" />
      <path
         d="m 112.19133,361.62796 q 1.06891,0 1.7145,0.62441 0.64558,0.62442 0.64558,1.85209 v 3.2385 h -1.32292 v -3.06917 q 0,-0.74083 -0.34925,-1.11125 -0.34925,-0.381 -0.99483,-0.381 -0.73025,0 -1.15358,0.4445 -0.42334,0.43392 -0.42334,1.25942 v 2.8575 h -1.32291 v -7.85284 h 1.32291 v 2.8575 q 0.32809,-0.34925 0.80434,-0.52916 0.48683,-0.1905 1.0795,-0.1905 z"
         style="font-style:normal;font-variant:normal;font-weight:600;font-stretch:normal;font-family:Montserrat;-inkscape-font-specification:'Montserrat Semi-Bold';fill:#ffffff;fill-opacity:1;stroke-width:0.26458332"
         id="path22070" />
    </g>
    <g
       aria-label="Instructions"
       style="font-style:normal;font-variant:normal;font-weight:bold;font-stretch:normal;font-size:10.58333302px;line-height:1.25;font-family:Montserrat;-inkscape-font-specification:'Montserrat Bold';letter-spacing:0px;word-spacing:0px;fill:#000000;fill-opacity:1;stroke:none;stroke-width:0.26458332"
       id="text21995">
      <path
         d="m 75.666594,377.59847 h 1.375833 v 7.40834 h -1.375833 z"
         style="font-style:normal;font-variant:normal;font-weight:600;font-stretch:normal;font-family:Montserrat;-inkscape-font-specification:'Montserrat Semi-Bold';fill:#ffffff;fill-opacity:1;stroke-width:0.26458332"
         id="path22035" />
      <path
         d="m 82.115647,379.29181 q 1.068917,0 1.7145,0.62441 0.645583,0.62442 0.645583,1.85209 v 3.2385 h -1.322916 v -3.06917 q 0,-0.74083 -0.34925,-1.11125 -0.34925,-0.381 -0.994834,-0.381 -0.73025,0 -1.153583,0.4445 -0.423333,0.43392 -0.423333,1.25942 v 2.8575 h -1.322917 v -5.6515 h 1.259417 v 0.73025 q 0.328083,-0.39159 0.8255,-0.59267 0.497416,-0.20108 1.121833,-0.20108 z"
         style="font-style:normal;font-variant:normal;font-weight:600;font-stretch:normal;font-family:Montserrat;-inkscape-font-specification:'Montserrat Semi-Bold';fill:#ffffff;fill-opacity:1;stroke-width:0.26458332"
         id="path22037" />
      <path
         d="m 87.910518,385.08089 q -0.687917,0 -1.344084,-0.17992 -0.656166,-0.17991 -1.04775,-0.45508 l 0.508,-1.00542 q 0.381,0.254 0.910167,0.41275 0.53975,0.14817 1.058333,0.14817 1.185334,0 1.185334,-0.62442 0,-0.29633 -0.306917,-0.41275 -0.296333,-0.11641 -0.963083,-0.22225 -0.6985,-0.10583 -1.143,-0.24341 -0.433917,-0.13759 -0.762,-0.47625 -0.3175,-0.34925 -0.3175,-0.96309 0,-0.80433 0.66675,-1.28058 0.677333,-0.48683 1.820333,-0.48683 0.582083,0 1.164167,0.13758 0.582083,0.127 0.9525,0.34925 l -0.508,1.00542 q -0.719667,-0.42334 -1.61925,-0.42334 -0.582084,0 -0.889,0.17992 -0.296334,0.16933 -0.296334,0.45508 0,0.3175 0.3175,0.45509 0.328084,0.127 1.005417,0.24341 0.677333,0.10584 1.11125,0.24342 0.433917,0.13758 0.740833,0.46567 0.3175,0.32808 0.3175,0.93133 0,0.79375 -0.687916,1.27 -0.687917,0.47625 -1.87325,0.47625 z"
         style="font-style:normal;font-variant:normal;font-weight:600;font-stretch:normal;font-family:Montserrat;-inkscape-font-specification:'Montserrat Semi-Bold';fill:#ffffff;fill-opacity:1;stroke-width:0.26458332"
         id="path22039" />
      <path
         d="m 95.018549,384.69989 q -0.232833,0.1905 -0.5715,0.28575 -0.328083,0.0953 -0.6985,0.0953 -0.931333,0 -1.439333,-0.48683 -0.508,-0.48684 -0.508,-1.41817 v -2.71992 h -0.931334 v -1.05833 h 0.931334 v -1.29117 h 1.322916 v 1.29117 h 1.513417 v 1.05833 h -1.513417 v 2.68817 q 0,0.41275 0.201084,0.635 0.201083,0.21167 0.582083,0.21167 0.4445,0 0.740833,-0.23284 z"
         style="font-style:normal;font-variant:normal;font-weight:600;font-stretch:normal;font-family:Montserrat;-inkscape-font-specification:'Montserrat Semi-Bold';fill:#ffffff;fill-opacity:1;stroke-width:0.26458332"
         id="path22041" />
      <path
         d="m 97.366229,380.18081 q 0.5715,-0.889 2.010834,-0.889 v 1.25941 q -0.169334,-0.0317 -0.306917,-0.0317 -0.772583,0 -1.2065,0.45509 -0.433917,0.4445 -0.433917,1.29116 v 2.74109 h -1.322916 v -5.6515 h 1.259416 z"
         style="font-style:normal;font-variant:normal;font-weight:600;font-stretch:normal;font-family:Montserrat;-inkscape-font-specification:'Montserrat Semi-Bold';fill:#ffffff;fill-opacity:1;stroke-width:0.26458332"
         id="path22043" />
      <path
         d="m 106.02257,379.35531 v 5.6515 h -1.25942 v -0.71967 q -0.3175,0.381 -0.79375,0.59267 -0.47625,0.20108 -1.02658,0.20108 -1.13242,0 -1.78858,-0.62442 -0.64559,-0.635 -0.64559,-1.87325 v -3.22791 h 1.32292 v 3.048 q 0,0.762 0.33867,1.143 0.34925,0.37041 0.98425,0.37041 0.70908,0 1.12183,-0.43391 0.42333,-0.4445 0.42333,-1.27 v -2.8575 z"
         style="font-style:normal;font-variant:normal;font-weight:600;font-stretch:normal;font-family:Montserrat;-inkscape-font-specification:'Montserrat Semi-Bold';fill:#ffffff;fill-opacity:1;stroke-width:0.26458332"
         id="path22045" />
      <path
         d="m 110.35793,385.08089 q -0.87841,0 -1.57691,-0.37042 -0.6985,-0.37041 -1.09009,-1.02658 -0.39158,-0.66675 -0.39158,-1.50283 0,-0.83609 0.39158,-1.49225 0.39159,-0.65617 1.0795,-1.02659 0.6985,-0.37041 1.5875,-0.37041 0.83609,0 1.4605,0.33866 0.635,0.33867 0.9525,0.97367 l -1.016,0.59267 q -0.24341,-0.39159 -0.61383,-0.58209 -0.35983,-0.20108 -0.79375,-0.20108 -0.74083,0 -1.22767,0.48683 -0.48683,0.47625 -0.48683,1.28059 0,0.80433 0.47625,1.29116 0.48683,0.47625 1.23825,0.47625 0.43392,0 0.79375,-0.1905 0.37042,-0.20108 0.61383,-0.59266 l 1.016,0.59266 q -0.32808,0.635 -0.96308,0.98425 -0.62442,0.33867 -1.44992,0.33867 z"
         style="font-style:normal;font-variant:normal;font-weight:600;font-stretch:normal;font-family:Montserrat;-inkscape-font-specification:'Montserrat Semi-Bold';fill:#ffffff;fill-opacity:1;stroke-width:0.26458332"
         id="path22047" />
      <path
         d="m 117.38411,384.69989 q -0.23283,0.1905 -0.5715,0.28575 -0.32808,0.0953 -0.6985,0.0953 -0.93133,0 -1.43933,-0.48683 -0.508,-0.48684 -0.508,-1.41817 v -2.71992 h -0.93134 v -1.05833 h 0.93134 v -1.29117 h 1.32291 v 1.29117 h 1.51342 v 1.05833 h -1.51342 v 2.68817 q 0,0.41275 0.20109,0.635 0.20108,0.21167 0.58208,0.21167 0.4445,0 0.74083,-0.23284 z"
         style="font-style:normal;font-variant:normal;font-weight:600;font-stretch:normal;font-family:Montserrat;-inkscape-font-specification:'Montserrat Semi-Bold';fill:#ffffff;fill-opacity:1;stroke-width:0.26458332"
         id="path22049" />
      <path
         d="m 118.47237,379.35531 h 1.32292 v 5.6515 h -1.32292 z m 0.66675,-0.93134 q -0.35983,0 -0.60325,-0.22225 -0.24342,-0.23283 -0.24342,-0.5715 0,-0.33866 0.24342,-0.56091 0.24342,-0.23284 0.60325,-0.23284 0.35983,0 0.60325,0.22225 0.24342,0.21167 0.24342,0.53975 0,0.34925 -0.24342,0.59267 -0.23283,0.23283 -0.60325,0.23283 z"
         style="font-style:normal;font-variant:normal;font-weight:600;font-stretch:normal;font-family:Montserrat;-inkscape-font-specification:'Montserrat Semi-Bold';fill:#ffffff;fill-opacity:1;stroke-width:0.26458332"
         id="path22051" />
      <path
         d="m 124.07162,385.08089 q -0.85725,0 -1.54517,-0.37042 -0.68792,-0.37041 -1.0795,-1.02658 -0.381,-0.66675 -0.381,-1.50283 0,-0.83609 0.381,-1.49225 0.39158,-0.65617 1.0795,-1.02659 0.68792,-0.37041 1.54517,-0.37041 0.86783,0 1.55575,0.37041 0.68791,0.37042 1.06891,1.02659 0.39159,0.65616 0.39159,1.49225 0,0.83608 -0.39159,1.50283 -0.381,0.65617 -1.06891,1.02658 -0.68792,0.37042 -1.55575,0.37042 z m 0,-1.13242 q 0.73025,0 1.2065,-0.48683 0.47625,-0.48683 0.47625,-1.28058 0,-0.79375 -0.47625,-1.28059 -0.47625,-0.48683 -1.2065,-0.48683 -0.73025,0 -1.2065,0.48683 -0.46567,0.48684 -0.46567,1.28059 0,0.79375 0.46567,1.28058 0.47625,0.48683 1.2065,0.48683 z"
         style="font-style:normal;font-variant:normal;font-weight:600;font-stretch:normal;font-family:Montserrat;-inkscape-font-specification:'Montserrat Semi-Bold';fill:#ffffff;fill-opacity:1;stroke-width:0.26458332"
         id="path22053" />
      <path
         d="m 131.55966,379.29181 q 1.06891,0 1.7145,0.62441 0.64558,0.62442 0.64558,1.85209 v 3.2385 h -1.32292 v -3.06917 q 0,-0.74083 -0.34925,-1.11125 -0.34925,-0.381 -0.99483,-0.381 -0.73025,0 -1.15358,0.4445 -0.42334,0.43392 -0.42334,1.25942 v 2.8575 h -1.32291 v -5.6515 h 1.25941 v 0.73025 q 0.32809,-0.39159 0.8255,-0.59267 0.49742,-0.20108 1.12184,-0.20108 z"
         style="font-style:normal;font-variant:normal;font-weight:600;font-stretch:normal;font-family:Montserrat;-inkscape-font-specification:'Montserrat Semi-Bold';fill:#ffffff;fill-opacity:1;stroke-width:0.26458332"
         id="path22055" />
      <path
         d="m 137.35453,385.08089 q -0.68792,0 -1.34409,-0.17992 -0.65616,-0.17991 -1.04775,-0.45508 l 0.508,-1.00542 q 0.381,0.254 0.91017,0.41275 0.53975,0.14817 1.05833,0.14817 1.18534,0 1.18534,-0.62442 0,-0.29633 -0.30692,-0.41275 -0.29633,-0.11641 -0.96308,-0.22225 -0.6985,-0.10583 -1.143,-0.24341 -0.43392,-0.13759 -0.762,-0.47625 -0.3175,-0.34925 -0.3175,-0.96309 0,-0.80433 0.66675,-1.28058 0.67733,-0.48683 1.82033,-0.48683 0.58208,0 1.16417,0.13758 0.58208,0.127 0.9525,0.34925 l -0.508,1.00542 q -0.71967,-0.42334 -1.61925,-0.42334 -0.58209,0 -0.889,0.17992 -0.29634,0.16933 -0.29634,0.45508 0,0.3175 0.3175,0.45509 0.32809,0.127 1.00542,0.24341 0.67733,0.10584 1.11125,0.24342 0.43392,0.13758 0.74083,0.46567 0.3175,0.32808 0.3175,0.93133 0,0.79375 -0.68791,1.27 -0.68792,0.47625 -1.87325,0.47625 z"
         style="font-style:normal;font-variant:normal;font-weight:600;font-stretch:normal;font-family:Montserrat;-inkscape-font-specification:'Montserrat Semi-Bold';fill:#ffffff;fill-opacity:1;stroke-width:0.26458332"
         id="path22057" />
    </g>
    <g
       id="g41291"
       transform="translate(-4.5251004,-66.722079)">
      <g
         aria-label="Press"
         style="font-style:normal;font-variant:normal;font-weight:bold;font-stretch:normal;font-size:10.58333302px;line-height:1.25;font-family:Montserrat;-inkscape-font-specification:'Montserrat Bold';letter-spacing:0px;word-spacing:0px;fill:#000000;fill-opacity:1;stroke:none;stroke-width:0.26458332"
         id="text40904">
        <path
           d="m 14.168808,508.01913 q 1.151467,0 1.811867,0.55034 0.6604,0.55033 0.6604,1.51553 0,0.9652 -0.6604,1.51553 -0.6604,0.55034 -1.811867,0.55034 h -1.464733 v 1.79493 h -0.846666 v -5.92667 z m -0.0254,3.39514 q 0.804334,0 1.227667,-0.33867 0.423333,-0.34713 0.423333,-0.9906 0,-0.64347 -0.423333,-0.98213 -0.423333,-0.34714 -1.227667,-0.34714 h -1.439333 v 2.65854 z"
           style="font-style:normal;font-variant:normal;font-weight:500;font-stretch:normal;font-size:8.46666622px;font-family:Montserrat;-inkscape-font-specification:'Montserrat Medium';fill:#ffffff;fill-opacity:1;stroke-width:0.26458332"
           id="path41293" />
        <path
           d="m 18.470933,510.212 q 0.211667,-0.38947 0.626533,-0.59267 0.414867,-0.2032 1.007534,-0.2032 v 0.7874 q -0.06773,-0.008 -0.186267,-0.008 -0.6604,0 -1.0414,0.39793 -0.372533,0.38947 -0.372533,1.1176 v 2.2352 H 17.692 v -4.48733 h 0.778933 z"
           style="font-style:normal;font-variant:normal;font-weight:500;font-stretch:normal;font-size:8.46666622px;font-family:Montserrat;-inkscape-font-specification:'Montserrat Medium';fill:#ffffff;fill-opacity:1;stroke-width:0.26458332"
           id="path41295" />
        <path
           d="m 25.12097,511.72753 q 0,0.0931 -0.01693,0.24554 H 21.46337 q 0.0762,0.59266 0.516467,0.95673 0.448733,0.3556 1.109133,0.3556 0.804334,0 1.2954,-0.54187 l 0.448734,0.52494 q -0.3048,0.3556 -0.762,0.54186 -0.448734,0.18627 -1.007534,0.18627 -0.7112,0 -1.261533,-0.28787 -0.550333,-0.29633 -0.855133,-0.82126 -0.296334,-0.52494 -0.296334,-1.18534 0,-0.65193 0.287867,-1.17686 0.296333,-0.52494 0.804333,-0.8128 0.516467,-0.29634 1.159934,-0.29634 0.643466,0 1.143,0.29634 0.508,0.28786 0.7874,0.8128 0.287866,0.52493 0.287866,1.20226 z m -2.218266,-1.6256 q -0.5842,0 -0.982134,0.3556 -0.389466,0.3556 -0.4572,0.93134 h 2.878667 q -0.06773,-0.56727 -0.465667,-0.92287 -0.389466,-0.36407 -0.973666,-0.36407 z"
           style="font-style:normal;font-variant:normal;font-weight:500;font-stretch:normal;font-size:8.46666622px;font-family:Montserrat;-inkscape-font-specification:'Montserrat Medium';fill:#ffffff;fill-opacity:1;stroke-width:0.26458332"
           id="path41297" />
        <path
           d="m 27.528281,513.9966 q -0.550333,0 -1.058333,-0.14393 -0.508,-0.1524 -0.795867,-0.381 l 0.338667,-0.64347 q 0.296333,0.21167 0.719667,0.33867 0.423333,0.127 0.855133,0.127 1.0668,0 1.0668,-0.6096 0,-0.2032 -0.143933,-0.32174 -0.143934,-0.11853 -0.364067,-0.16933 -0.211667,-0.0593 -0.6096,-0.127 -0.541867,-0.0847 -0.889,-0.19473 -0.338667,-0.11007 -0.5842,-0.37254 -0.245533,-0.26246 -0.245533,-0.7366 0,-0.6096 0.508,-0.97366 0.508,-0.37254 1.363133,-0.37254 0.448733,0 0.897467,0.11007 0.448733,0.11007 0.7366,0.29633 l -0.347134,0.64347 q -0.550333,-0.3556 -1.2954,-0.3556 -0.516466,0 -0.7874,0.16933 -0.270933,0.16934 -0.270933,0.44874 0,0.22013 0.1524,0.34713 0.1524,0.127 0.372533,0.18627 0.2286,0.0593 0.635,0.13546 0.541867,0.0931 0.872067,0.2032 0.338667,0.1016 0.575733,0.3556 0.237067,0.254 0.237067,0.7112 0,0.6096 -0.524933,0.97367 -0.516467,0.3556 -1.413934,0.3556 z"
           style="font-style:normal;font-variant:normal;font-weight:500;font-stretch:normal;font-size:8.46666622px;font-family:Montserrat;-inkscape-font-specification:'Montserrat Medium';fill:#ffffff;fill-opacity:1;stroke-width:0.26458332"
           id="path41299" />
        <path
           d="m 31.778151,513.9966 q -0.550334,0 -1.058334,-0.14393 -0.508,-0.1524 -0.795866,-0.381 l 0.338666,-0.64347 q 0.296334,0.21167 0.719667,0.33867 0.423333,0.127 0.855133,0.127 1.0668,0 1.0668,-0.6096 0,-0.2032 -0.143933,-0.32174 -0.143933,-0.11853 -0.364067,-0.16933 -0.211666,-0.0593 -0.6096,-0.127 -0.541866,-0.0847 -0.889,-0.19473 -0.338666,-0.11007 -0.5842,-0.37254 -0.245533,-0.26246 -0.245533,-0.7366 0,-0.6096 0.508,-0.97366 0.508,-0.37254 1.363133,-0.37254 0.448734,0 0.897467,0.11007 0.448733,0.11007 0.7366,0.29633 l -0.347133,0.64347 q -0.550334,-0.3556 -1.2954,-0.3556 -0.516467,0 -0.7874,0.16933 -0.270934,0.16934 -0.270934,0.44874 0,0.22013 0.1524,0.34713 0.1524,0.127 0.372534,0.18627 0.2286,0.0593 0.635,0.13546 0.541866,0.0931 0.872066,0.2032 0.338667,0.1016 0.575734,0.3556 0.237066,0.254 0.237066,0.7112 0,0.6096 -0.524933,0.97367 -0.516467,0.3556 -1.413933,0.3556 z"
           style="font-style:normal;font-variant:normal;font-weight:500;font-stretch:normal;font-size:8.46666622px;font-family:Montserrat;-inkscape-font-specification:'Montserrat Medium';fill:#ffffff;fill-opacity:1;stroke-width:0.26458332"
           id="path41301" />
      </g>
      <g
         aria-label="to toggle sound"
         style="font-style:normal;font-variant:normal;font-weight:bold;font-stretch:normal;font-size:10.58333302px;line-height:1.25;font-family:Montserrat;-inkscape-font-specification:'Montserrat Bold';letter-spacing:0px;word-spacing:0px;fill:#000000;fill-opacity:1;stroke:none;stroke-width:0.26458332"
         id="text40908">
        <path
           d="m 54.611622,513.45476 q -0.1778,0.1524 -0.440267,0.23706 -0.262467,0.0762 -0.541867,0.0762 -0.677333,0 -1.049866,-0.36406 -0.372534,-0.36407 -0.372534,-1.0414 v -2.4638 h -0.761999 v -0.66887 h 0.761999 v -0.98213 h 0.8128 v 0.98213 h 1.286934 v 0.66887 h -1.286934 v 2.42993 q 0,0.36407 0.1778,0.5588 0.186267,0.19473 0.524934,0.19473 0.372533,0 0.635,-0.21166 z"
           style="font-style:normal;font-variant:normal;font-weight:500;font-stretch:normal;font-size:8.46666622px;font-family:Montserrat;-inkscape-font-specification:'Montserrat Medium';fill:#ffffff;fill-opacity:1;stroke-width:0.26458332"
           id="path41304" />
        <path
           d="m 57.367389,513.76802 q -0.668866,0 -1.202266,-0.29633 -0.5334,-0.29633 -0.8382,-0.8128 -0.296334,-0.52493 -0.296334,-1.18533 0,-0.6604 0.296334,-1.17687 0.3048,-0.52493 0.8382,-0.8128 0.5334,-0.29633 1.202266,-0.29633 0.668867,0 1.1938,0.29633 0.5334,0.28787 0.829734,0.8128 0.3048,0.51647 0.3048,1.17687 0,0.6604 -0.3048,1.18533 -0.296334,0.51647 -0.829734,0.8128 -0.524933,0.29633 -1.1938,0.29633 z m 0,-0.7112 q 0.4318,0 0.770467,-0.19473 0.347133,-0.2032 0.541867,-0.5588 0.194733,-0.36407 0.194733,-0.82973 0,-0.46567 -0.194733,-0.82127 -0.194734,-0.36407 -0.541867,-0.5588 -0.338667,-0.19473 -0.770467,-0.19473 -0.4318,0 -0.778933,0.19473 -0.338667,0.19473 -0.541867,0.5588 -0.194733,0.3556 -0.194733,0.82127 0,0.46566 0.194733,0.82973 0.2032,0.3556 0.541867,0.5588 0.347133,0.19473 0.778933,0.19473 z"
           style="font-style:normal;font-variant:normal;font-weight:500;font-stretch:normal;font-size:8.46666622px;font-family:Montserrat;-inkscape-font-specification:'Montserrat Medium';fill:#ffffff;fill-opacity:1;stroke-width:0.26458332"
           id="path41306" />
        <path
           d="m 65.624903,513.45476 q -0.1778,0.1524 -0.440267,0.23706 -0.262467,0.0762 -0.541867,0.0762 -0.677333,0 -1.049866,-0.36406 -0.372534,-0.36407 -0.372534,-1.0414 v -2.4638 h -0.762 v -0.66887 h 0.762 v -0.98213 h 0.8128 v 0.98213 h 1.286934 v 0.66887 h -1.286934 v 2.42993 q 0,0.36407 0.1778,0.5588 0.186267,0.19473 0.524934,0.19473 0.372533,0 0.635,-0.21166 z"
           style="font-style:normal;font-variant:normal;font-weight:500;font-stretch:normal;font-size:8.46666622px;font-family:Montserrat;-inkscape-font-specification:'Montserrat Medium';fill:#ffffff;fill-opacity:1;stroke-width:0.26458332"
           id="path41308" />
        <path
           d="m 68.38067,513.76802 q -0.668866,0 -1.202266,-0.29633 -0.5334,-0.29633 -0.8382,-0.8128 -0.296333,-0.52493 -0.296333,-1.18533 0,-0.6604 0.296333,-1.17687 0.3048,-0.52493 0.8382,-0.8128 0.5334,-0.29633 1.202266,-0.29633 0.668867,0 1.1938,0.29633 0.5334,0.28787 0.829734,0.8128 0.3048,0.51647 0.3048,1.17687 0,0.6604 -0.3048,1.18533 -0.296334,0.51647 -0.829734,0.8128 -0.524933,0.29633 -1.1938,0.29633 z m 0,-0.7112 q 0.4318,0 0.770467,-0.19473 0.347133,-0.2032 0.541867,-0.5588 0.194733,-0.36407 0.194733,-0.82973 0,-0.46567 -0.194733,-0.82127 -0.194734,-0.36407 -0.541867,-0.5588 -0.338667,-0.19473 -0.770467,-0.19473 -0.4318,0 -0.778933,0.19473 -0.338667,0.19473 -0.541867,0.5588 -0.194733,0.3556 -0.194733,0.82127 0,0.46566 0.194733,0.82973 0.2032,0.3556 0.541867,0.5588 0.347133,0.19473 0.778933,0.19473 z"
           style="font-style:normal;font-variant:normal;font-weight:500;font-stretch:normal;font-size:8.46666622px;font-family:Montserrat;-inkscape-font-specification:'Montserrat Medium';fill:#ffffff;fill-opacity:1;stroke-width:0.26458332"
           id="path41310" />
        <path
           d="m 76.125685,509.22989 v 3.87773 q 0,1.17687 -0.5842,1.73567 -0.5842,0.56727 -1.744134,0.56727 -0.635,0 -1.210733,-0.1778 -0.575733,-0.16934 -0.931333,-0.49107 l 0.389467,-0.62653 q 0.313266,0.27093 0.770466,0.42333 0.465667,0.16087 0.956733,0.16087 0.7874,0 1.159934,-0.37254 0.381,-0.37253 0.381,-1.13453 v -0.3556 q -0.287867,0.34713 -0.7112,0.52493 -0.414867,0.16934 -0.905934,0.16934 -0.643466,0 -1.168399,-0.27094 -0.516467,-0.2794 -0.8128,-0.77046 -0.296334,-0.49954 -0.296334,-1.13454 0,-0.635 0.296334,-1.12606 0.296333,-0.49954 0.8128,-0.77047 0.524933,-0.27093 1.168399,-0.27093 0.508,0 0.9398,0.18626 0.440267,0.18627 0.719667,0.55034 v -0.69427 z m -2.3368,3.58987 q 0.440266,0 0.7874,-0.18627 0.3556,-0.18627 0.550333,-0.51647 0.2032,-0.33866 0.2032,-0.762 0,-0.65193 -0.4318,-1.04986 -0.4318,-0.4064 -1.109133,-0.4064 -0.6858,0 -1.1176,0.4064 -0.4318,0.39793 -0.4318,1.04986 0,0.42334 0.194733,0.762 0.2032,0.3302 0.550333,0.51647 0.3556,0.18627 0.804334,0.18627 z"
           style="font-style:normal;font-variant:normal;font-weight:500;font-stretch:normal;font-size:8.46666622px;font-family:Montserrat;-inkscape-font-specification:'Montserrat Medium';fill:#ffffff;fill-opacity:1;stroke-width:0.26458332"
           id="path41312" />
        <path
           d="m 81.963055,509.22989 v 3.87773 q 0,1.17687 -0.5842,1.73567 -0.5842,0.56727 -1.744134,0.56727 -0.635,0 -1.210733,-0.1778 -0.575733,-0.16934 -0.931333,-0.49107 l 0.389466,-0.62653 q 0.313267,0.27093 0.770467,0.42333 0.465667,0.16087 0.956733,0.16087 0.7874,0 1.159934,-0.37254 0.381,-0.37253 0.381,-1.13453 v -0.3556 q -0.287867,0.34713 -0.7112,0.52493 -0.414867,0.16934 -0.905934,0.16934 -0.643466,0 -1.1684,-0.27094 -0.516466,-0.2794 -0.8128,-0.77046 -0.296333,-0.49954 -0.296333,-1.13454 0,-0.635 0.296333,-1.12606 0.296334,-0.49954 0.8128,-0.77047 0.524934,-0.27093 1.1684,-0.27093 0.508,0 0.9398,0.18626 0.440267,0.18627 0.719667,0.55034 v -0.69427 z m -2.3368,3.58987 q 0.440266,0 0.7874,-0.18627 0.3556,-0.18627 0.550333,-0.51647 0.2032,-0.33866 0.2032,-0.762 0,-0.65193 -0.4318,-1.04986 -0.4318,-0.4064 -1.109133,-0.4064 -0.6858,0 -1.1176,0.4064 -0.4318,0.39793 -0.4318,1.04986 0,0.42334 0.194733,0.762 0.2032,0.3302 0.550333,0.51647 0.3556,0.18627 0.804334,0.18627 z"
           style="font-style:normal;font-variant:normal;font-weight:500;font-stretch:normal;font-size:8.46666622px;font-family:Montserrat;-inkscape-font-specification:'Montserrat Medium';fill:#ffffff;fill-opacity:1;stroke-width:0.26458332"
           id="path41314" />
        <path
           d="m 83.507825,507.43496 h 0.8128 v 6.28226 h -0.8128 z"
           style="font-style:normal;font-variant:normal;font-weight:500;font-stretch:normal;font-size:8.46666622px;font-family:Montserrat;-inkscape-font-specification:'Montserrat Medium';fill:#ffffff;fill-opacity:1;stroke-width:0.26458332"
           id="path41316" />
        <path
           d="m 89.92807,511.49896 q 0,0.0931 -0.01693,0.24553 H 86.27047 q 0.0762,0.59267 0.516466,0.95673 0.448734,0.3556 1.109134,0.3556 0.804333,0 1.2954,-0.54186 l 0.448733,0.52493 q -0.3048,0.3556 -0.762,0.54187 -0.448733,0.18626 -1.007533,0.18626 -0.7112,0 -1.261534,-0.28786 -0.550333,-0.29634 -0.855133,-0.82127 -0.296333,-0.52493 -0.296333,-1.18533 0,-0.65194 0.287866,-1.17687 0.296334,-0.52493 0.804334,-0.8128 0.516466,-0.29633 1.159933,-0.29633 0.643467,0 1.143,0.29633 0.508,0.28787 0.7874,0.8128 0.287867,0.52493 0.287867,1.20227 z m -2.218267,-1.6256 q -0.5842,0 -0.982133,0.3556 -0.389467,0.3556 -0.4572,0.93133 h 2.878666 q -0.06773,-0.56727 -0.465666,-0.92287 -0.389467,-0.36406 -0.973667,-0.36406 z"
           style="font-style:normal;font-variant:normal;font-weight:500;font-stretch:normal;font-size:8.46666622px;font-family:Montserrat;-inkscape-font-specification:'Montserrat Medium';fill:#ffffff;fill-opacity:1;stroke-width:0.26458332"
           id="path41318" />
        <path
           d="m 94.617413,513.76802 q -0.550334,0 -1.058334,-0.14393 -0.508,-0.1524 -0.795866,-0.381 l 0.338666,-0.64347 q 0.296334,0.21167 0.719667,0.33867 0.423333,0.127 0.855133,0.127 1.0668,0 1.0668,-0.6096 0,-0.2032 -0.143933,-0.32173 -0.143933,-0.11854 -0.364067,-0.16934 -0.211666,-0.0593 -0.6096,-0.127 -0.541866,-0.0847 -0.889,-0.19473 -0.338666,-0.11007 -0.5842,-0.37253 -0.245533,-0.26247 -0.245533,-0.7366 0,-0.6096 0.508,-0.97367 0.508,-0.37253 1.363133,-0.37253 0.448734,0 0.897467,0.11006 0.448733,0.11007 0.7366,0.29634 l -0.347133,0.64346 q -0.550334,-0.3556 -1.2954,-0.3556 -0.516467,0 -0.7874,0.16934 -0.270934,0.16933 -0.270934,0.44873 0,0.22013 0.1524,0.34713 0.1524,0.127 0.372534,0.18627 0.2286,0.0593 0.635,0.13547 0.541866,0.0931 0.872066,0.2032 0.338667,0.1016 0.575734,0.3556 0.237066,0.254 0.237066,0.7112 0,0.6096 -0.524933,0.97366 -0.516467,0.3556 -1.413933,0.3556 z"
           style="font-style:normal;font-variant:normal;font-weight:500;font-stretch:normal;font-size:8.46666622px;font-family:Montserrat;-inkscape-font-specification:'Montserrat Medium';fill:#ffffff;fill-opacity:1;stroke-width:0.26458332"
           id="path41320" />
        <path
           d="m 99.502283,513.76802 q -0.668867,0 -1.202267,-0.29633 -0.5334,-0.29633 -0.8382,-0.8128 -0.296333,-0.52493 -0.296333,-1.18533 0,-0.6604 0.296333,-1.17687 0.3048,-0.52493 0.8382,-0.8128 0.5334,-0.29633 1.202267,-0.29633 0.668867,0 1.193797,0.29633 0.5334,0.28787 0.82974,0.8128 0.3048,0.51647 0.3048,1.17687 0,0.6604 -0.3048,1.18533 -0.29634,0.51647 -0.82974,0.8128 -0.52493,0.29633 -1.193797,0.29633 z m 0,-0.7112 q 0.4318,0 0.770467,-0.19473 0.34713,-0.2032 0.54187,-0.5588 0.19473,-0.36407 0.19473,-0.82973 0,-0.46567 -0.19473,-0.82127 -0.19474,-0.36407 -0.54187,-0.5588 -0.338667,-0.19473 -0.770467,-0.19473 -0.4318,0 -0.778933,0.19473 -0.338667,0.19473 -0.541867,0.5588 -0.194733,0.3556 -0.194733,0.82127 0,0.46566 0.194733,0.82973 0.2032,0.3556 0.541867,0.5588 0.347133,0.19473 0.778933,0.19473 z"
           style="font-style:normal;font-variant:normal;font-weight:500;font-stretch:normal;font-size:8.46666622px;font-family:Montserrat;-inkscape-font-specification:'Montserrat Medium';fill:#ffffff;fill-opacity:1;stroke-width:0.26458332"
           id="path41322" />
        <path
           d="m 107.13723,509.22989 v 4.48733 h -0.77047 v -0.67733 q -0.24553,0.34713 -0.65193,0.54187 -0.39793,0.18626 -0.87207,0.18626 -0.89746,0 -1.41393,-0.49106 -0.51647,-0.49954 -0.51647,-1.46474 v -2.58233 h 0.8128 v 2.4892 q 0,0.65193 0.31327,0.9906 0.31327,0.3302 0.89747,0.3302 0.64346,0 1.016,-0.38947 0.37253,-0.38946 0.37253,-1.10066 v -2.31987 z"
           style="font-style:normal;font-variant:normal;font-weight:500;font-stretch:normal;font-size:8.46666622px;font-family:Montserrat;-inkscape-font-specification:'Montserrat Medium';fill:#ffffff;fill-opacity:1;stroke-width:0.26458332"
           id="path41324" />
        <path
           d="m 111.08892,509.18756 q 0.85513,0 1.35466,0.49953 0.508,0.49107 0.508,1.4478 v 2.58233 h -0.8128 v -2.4892 q 0,-0.65193 -0.31326,-0.98213 -0.31327,-0.3302 -0.89747,-0.3302 -0.6604,0 -1.0414,0.38947 -0.381,0.381 -0.381,1.10066 v 2.3114 h -0.8128 v -4.48733 h 0.77893 v 0.67733 q 0.24554,-0.34713 0.6604,-0.5334 0.42334,-0.18626 0.95674,-0.18626 z"
           style="font-style:normal;font-variant:normal;font-weight:500;font-stretch:normal;font-size:8.46666622px;font-family:Montserrat;-inkscape-font-specification:'Montserrat Medium';fill:#ffffff;fill-opacity:1;stroke-width:0.26458332"
           id="path41326" />
        <path
           d="m 118.73048,507.43496 v 6.28226 h -0.77894 v -0.7112 q -0.27093,0.37254 -0.6858,0.56727 -0.41486,0.19473 -0.9144,0.19473 -0.65193,0 -1.1684,-0.28786 -0.51646,-0.28787 -0.8128,-0.80434 -0.28786,-0.52493 -0.28786,-1.20226 0,-0.67734 0.28786,-1.1938 0.29634,-0.51647 0.8128,-0.80434 0.51647,-0.28786 1.1684,-0.28786 0.4826,0 0.889,0.18626 0.4064,0.1778 0.67734,0.5334 v -2.47226 z m -2.3114,5.62186 q 0.42333,0 0.77046,-0.19473 0.34714,-0.2032 0.54187,-0.5588 0.19473,-0.36407 0.19473,-0.82973 0,-0.46567 -0.19473,-0.82127 -0.19473,-0.36407 -0.54187,-0.5588 -0.34713,-0.19473 -0.77046,-0.19473 -0.4318,0 -0.77894,0.19473 -0.33866,0.19473 -0.54186,0.5588 -0.19474,0.3556 -0.19474,0.82127 0,0.46566 0.19474,0.82973 0.2032,0.3556 0.54186,0.5588 0.34714,0.19473 0.77894,0.19473 z"
           style="font-style:normal;font-variant:normal;font-weight:500;font-stretch:normal;font-size:8.46666622px;font-family:Montserrat;-inkscape-font-specification:'Montserrat Medium';fill:#ffffff;fill-opacity:1;stroke-width:0.26458332"
           id="path41328" />
      </g>
      <g
         transform="translate(127.40251,342.60938)"
         id="g41068">
        <g
           id="g41060">
          <path
             transform="translate(-110.4703,0.73505845)"
             inkscape:connector-curvature="0"
             id="path4741-9"
             d="m 30.405443,164.75958 a 0.52916664,0.52916664 0 0 1 -0.529167,0.52917 0.52916664,0.52916664 0 0 1 -0.529167,-0.52917 0.52916664,0.52916664 0 0 1 0.529167,-0.52916 0.52916664,0.52916664 0 0 1 0.529167,0.52916 z"
             clip-path="url(#clipPath11462-3)"
             style="fill:#581255;fill-opacity:1;stroke-width:0.02376224" />
          <path
             inkscape:connector-curvature="0"
             id="rect66955-3-5-6"
             d="m -85.577802,163.47021 h 1.29677 c 2.67444,0 4.8275,1.02269 4.8275,2.29303 v 5.27054 c 0,1.27034 -2.15306,2.29303 -4.8275,2.29303 h -1.29677 c -2.67443,0 -4.8275,-1.02269 -4.8275,-2.29303 v -5.27054 c 0,-1.27034 2.15307,-2.29303 4.8275,-2.29303 z"
             style="opacity:1;fill:#ffffff;fill-opacity:1;stroke:none;stroke-width:0.08518047;stroke-opacity:0.94117647" />
          <path
             sodipodi:nodetypes="cccc"
             inkscape:connector-curvature="0"
             id="path66959-1-1-0"
             d="m -90.010002,169.20545 c 2.08708,3.53474 7.12019,2.89798 9.85697,2.71936 -2.65417,1.64348 -7.74456,1.15754 -9.01434,0.21664 -0.6552,-0.30871 -0.7195,-1.4554 -0.84263,-2.936 z"
             style="fill:#bdbdbd;fill-opacity:1;stroke:none;stroke-width:0.08518047px;stroke-linecap:butt;stroke-linejoin:miter;stroke-opacity:1" />
          <g
             aria-label="M"
             style="font-style:normal;font-variant:normal;font-weight:bold;font-stretch:normal;font-size:10.58333302px;line-height:1.25;font-family:Montserrat;-inkscape-font-specification:'Montserrat Bold';letter-spacing:0px;word-spacing:0px;fill:#000000;fill-opacity:1;stroke:none;stroke-width:0.26458332"
             id="text40925">
            <path
               d="m -82.62119,166.17602 v 4.445 h -0.45085 v -3.556 l -1.74625,2.99085 h -0.22225 l -1.74625,-2.9718 v 3.53695 h -0.45085 v -4.445 h 0.38735 l 1.9304,3.29565 1.91135,-3.29565 z"
               style="font-style:normal;font-variant:normal;font-weight:normal;font-stretch:normal;font-size:6.3499999px;font-family:Montserrat;-inkscape-font-specification:Montserrat;fill:#757575;fill-opacity:1;stroke-width:0.26458332"
               id="path41331" />
          </g>
        </g>
      </g>
    </g>
  </g>
</svg>
