<?xml version="1.0" encoding="UTF-8" standalone="no"?>
<!-- Created with Inkscape (http://www.inkscape.org/) -->

<svg
   xmlns:dc="http://purl.org/dc/elements/1.1/"
   xmlns:cc="http://creativecommons.org/ns#"
   xmlns:rdf="http://www.w3.org/1999/02/22-rdf-syntax-ns#"
   xmlns:svg="http://www.w3.org/2000/svg"
   xmlns="http://www.w3.org/2000/svg"
   xmlns:sodipodi="http://sodipodi.sourceforge.net/DTD/sodipodi-0.dtd"
   xmlns:inkscape="http://www.inkscape.org/namespaces/inkscape"
   width="240"
   height="81"
   viewBox="0 0 63.499998 21.431251"
   version="1.1"
   id="svg5371"
   inkscape:version="0.92.4 (5da689c313, 2019-01-14)"
   sodipodi:docname="healthbar-container-transparent.svg">
  <defs
     id="defs5365" />
  <sodipodi:namedview
     id="base"
     pagecolor="#ffffff"
     bordercolor="#666666"
     borderopacity="1.0"
     inkscape:pageopacity="0.0"
     inkscape:pageshadow="2"
     inkscape:zoom="2"
     inkscape:cx="120.13455"
     inkscape:cy="5.6473641"
     inkscape:document-units="px"
     inkscape:current-layer="layer2"
     showgrid="false"
     units="px"
     inkscape:pagecheckerboard="true"
     inkscape:window-width="1618"
     inkscape:window-height="1028"
     inkscape:window-x="1734"
     inkscape:window-y="-8"
     inkscape:window-maximized="1" />
  <metadata
     id="metadata5368">
    <rdf:RDF>
      <cc:Work
         rdf:about="">
        <dc:format>image/svg+xml</dc:format>
        <dc:type
           rdf:resource="http://purl.org/dc/dcmitype/StillImage" />
        <dc:title />
      </cc:Work>
    </rdf:RDF>
  </metadata>
  <g
     inkscape:groupmode="layer"
     id="layer2"
     inkscape:label="Layer 2"
     style="opacity:0.85">
    <g
       transform="translate(8.21353,-280.8454)"
       id="g26752"
       style="opacity:1">
      <rect
         ry="7.3945723"
         y="281.90179"
         x="-6.178556"
         height="14.789145"
         width="61.434742"
         id="rect2792-7"
         style="fill:#ffffff;fill-opacity:1;stroke:none;stroke-width:0.51989061" />
      <ellipse
         ry="8.4509392"
         rx="8.4626284"
         cy="289.29636"
         cx="0.24909839"
         id="path2167-4-5"
         style="fill:#ffffff;fill-rule:evenodd;stroke-width:0.28321847" />
      <ellipse
         ry="4.2254696"
         rx="4.2313142"
         cy="298.05118"
         cx="4.4813585"
         id="path2167-4-8"
         style="fill:#ffffff;fill-rule:evenodd;stroke-width:0.14160924" />
      <rect
         ry="3.286267"
         y="294.55438"
         x="3.550864"
         height="6.5725341"
         width="51.735607"
         id="rect2792-8"
         style="fill:#ffffff;fill-opacity:1;stroke:none;stroke-width:0.31804943" />
    </g>
  </g>
  <g
     inkscape:label="Layer 1"
     inkscape:groupmode="layer"
     id="layer1"
     transform="translate(8.2135299,-280.84541)"
     style="opacity:1">
    <g
       id="g31413">
      <path
         inkscape:connector-curvature="0"
         id="rect2129-6"
         d="m -5.1382678,285.02964 a 4.3688432,3.4640981 60.069371 0 0 0.5391617,5.85657 l 4.66198958,-5.27389 -4.66086508,5.27513 4.71057336,5.25475 4.67659554,-5.29293 -0.1184804,-0.13217 0.1188872,0.13171 a 3.4599173,4.3626141 29.329556 0 0 0.4772963,-5.85395 3.4599173,4.3626141 29.329556 0 0 -5.18766172,0.60035 l -6.0571e-4,-6.3e-4 A 4.3688432,3.4640981 60.069371 0 0 -5.1382578,285.0297 Z"
         style="fill:#ff0000;fill-opacity:1;stroke:none;stroke-width:0.0714203" />
      <path
         sodipodi:nodetypes="ccsc"
         inkscape:connector-curvature="0"
         id="path2762"
         d="m 2.321151,285.72759 c 1.6539938,-0.35871 2.6946842,0.89289 2.3751297,2.37541 0.046268,0.016 0.9081486,-1.73568 -0.3361956,-2.51002 -0.4924041,-0.30642 -1.381076,-0.4743 -2.0389341,0.13461 z"
         style="fill:#ffffff;fill-opacity:1;stroke:none;stroke-width:0.18782791px;stroke-linecap:butt;stroke-linejoin:miter;stroke-opacity:1" />
      <path
         sodipodi:nodetypes="cccc"
         inkscape:connector-curvature="0"
         id="path2764"
         d="m -5.0776097,290.01673 c 0,0 2.9144943,3.42166 5.15691334,5.62138 l 2.56901216,-2.53717 c -3.64540656,1.37243 -7.7259255,-3.08421 -7.7259255,-3.08421 z"
         style="fill:#ad0000;fill-opacity:1;stroke:none;stroke-width:0.30202791px;stroke-linecap:butt;stroke-linejoin:miter;stroke-opacity:1" />
    </g>
    <rect
       style="fill:#ff0000;fill-opacity:0;stroke:none;stroke-width:0.33020639"
       id="rect2792-4"
       width="43.370972"
       height="8.4509392"
       x="9.2406425"
       y="285.07086"
       ry="4.2254696" />
    <g
       id="g7207"
       transform="matrix(0.99952308,0,0,0.99814248,53.663425,144.17203)"
       style="">
      <g
         id="g26762"
         style="">
        <path
           id="path2822-7"
           d="m -49.426384,151.01977 c 1.680922,0 3.025659,1.42879 3.025659,3.20426 0,1.77548 -1.344737,3.20426 -3.025659,3.20426 -1.680922,0 -3.02566,-1.42878 -3.02566,-3.20426 0,-1.77547 1.344738,-3.20426 3.02566,-3.20426 z"
           style="fill:#23a0da;fill-opacity:1;fill-rule:nonzero;stroke:none;stroke-width:0.13132301"
           inkscape:connector-curvature="0" />
        <path
           id="path2824-2"
           d="m -46.222126,154.41313 c 0,1.73346 -1.407773,3.15173 -3.151729,3.15173 -1.743957,0 -3.151729,-1.41827 -3.151729,-3.15173 0,-1.74395 1.407772,-3.15173 3.151729,-3.15173 1.743956,0 3.151729,1.40778 3.151729,3.15173 z"
           style="fill:#20a2db;fill-opacity:1;fill-rule:nonzero;stroke:none;stroke-width:0.13132301"
           inkscape:connector-curvature="0" />
        <path
           id="path2826-6"
           d="m -47.934566,153.2575 c 0.199609,0.13657 0.168092,0.914 0.157586,1.16614 0,0.22062 0.01051,0.95602 -0.199609,1.05058 -0.210115,0.10506 -0.861472,-0.30467 -1.071588,-0.43074 -0.189103,-0.11556 -0.819449,-0.48327 -0.808944,-0.70389 0.02101,-0.25214 0.703887,-0.60933 0.914002,-0.72489 0.199609,-0.11557 0.81945,-0.48327 1.008553,-0.3572 z"
           style="fill:#ffffff;fill-opacity:1;fill-rule:nonzero;stroke:none;stroke-width:0.13132301"
           inkscape:connector-curvature="0" />
        <path
           id="path2828-2"
           d="m -50.802639,155.45321 c -0.19961,-0.13658 -0.178598,-0.91401 -0.178598,-1.16615 0.01051,-0.22062 0,-0.95602 0.19961,-1.06108 0.22062,-0.10506 0.871978,0.30467 1.082093,0.43074 0.189104,0.11556 0.81945,0.47276 0.808944,0.70388 -0.02101,0.24164 -0.703886,0.60934 -0.914002,0.7249 -0.189103,0.11557 -0.808943,0.49378 -0.998047,0.36771 z"
           style="fill:#ffffff;fill-opacity:1;fill-rule:nonzero;stroke:none;stroke-width:0.13132301"
           inkscape:connector-curvature="0" />
        <path
           id="path2830-6"
           d="m -50.392915,154.92792 c -0.105057,-0.0735 -0.08405,-0.47276 -0.08405,-0.60934 0,-0.11556 -0.01051,-0.49377 0.09455,-0.5463 0.115564,-0.0525 0.451748,0.15759 0.567311,0.22062 0.09455,0.063 0.420231,0.25214 0.420231,0.3677 -0.01051,0.12607 -0.367702,0.31518 -0.472759,0.37821 -0.105058,0.063 -0.430737,0.25214 -0.525289,0.18911 z"
           style="fill:#1c3661;fill-opacity:1;fill-rule:nonzero;stroke:none;stroke-width:0.13132301"
           inkscape:connector-curvature="0" />
        <path
           id="path2832-2"
           d="m -48.333785,153.8038 c 0.105058,0.0735 0.08405,0.47276 0.08405,0.59883 -0.01051,0.12606 -0.01051,0.50428 -0.115563,0.5568 -0.115564,0.0525 -0.451748,-0.16809 -0.556805,-0.24163 -0.09455,-0.063 -0.420231,-0.25214 -0.409725,-0.3677 0.01051,-0.12607 0.367702,-0.31517 0.472759,-0.37821 0.105058,-0.0525 0.430736,-0.24163 0.525288,-0.16809 z"
           style="fill:#23a0da;fill-opacity:1;fill-rule:nonzero;stroke:none;stroke-width:0.13132301"
           inkscape:connector-curvature="0" />
        <path
           id="path2834-3"
           d="m -49.069188,154.3501 c 0,0.17859 -0.136575,0.33618 -0.304667,0.33618 -0.168092,0 -0.304668,-0.15759 -0.304668,-0.33618 0,-0.1891 0.136576,-0.33618 0.304668,-0.33618 0.168092,0 0.304667,0.14708 0.304667,0.33618 z"
           style="fill:#ffffff;fill-opacity:1;fill-rule:nonzero;stroke:none;stroke-width:0.13132301"
           inkscape:connector-curvature="0" />
        <path
           id="path2836-7"
           d="m -49.111212,151.7867 c 0.609335,-0.0105 1.806992,0.49376 2.174694,1.53384 0.105057,-0.75642 -0.588323,-1.73346 -2.174694,-1.53384 z"
           style="fill:#ffffff;fill-opacity:1;fill-rule:nonzero;stroke:none;stroke-width:0.13132301"
           inkscape:connector-curvature="0" />
      </g>
    </g>
    <rect
       style="fill:#20a2db;fill-opacity:0;stroke:none;stroke-width:0.21448383"
       id="rect2792-4-9"
       width="43.007339"
       height="3.5956695"
       x="9.6042728"
       y="296.16275"
       ry="1.7978348" />
  </g>
</svg>
