<?xml version="1.0" encoding="UTF-8" standalone="no"?>
<!-- Created with Inkscape (http://www.inkscape.org/) -->

<svg
   xmlns:dc="http://purl.org/dc/elements/1.1/"
   xmlns:cc="http://creativecommons.org/ns#"
   xmlns:rdf="http://www.w3.org/1999/02/22-rdf-syntax-ns#"
   xmlns:svg="http://www.w3.org/2000/svg"
   xmlns="http://www.w3.org/2000/svg"
   xmlns:sodipodi="http://sodipodi.sourceforge.net/DTD/sodipodi-0.dtd"
   xmlns:inkscape="http://www.inkscape.org/namespaces/inkscape"
   width="160"
   height="128"
   viewBox="0 0 42.333333 33.866666"
   version="1.1"
   id="svg26757"
   inkscape:version="0.92.4 (5da689c313, 2019-01-14)"
   sodipodi:docname="on.svg">
  <defs
     id="defs26751" />
  <sodipodi:namedview
     id="base"
     pagecolor="#ffffff"
     bordercolor="#666666"
     borderopacity="1.0"
     inkscape:pageopacity="0.0"
     inkscape:pageshadow="2"
     inkscape:zoom="1.4142136"
     inkscape:cx="-119.53633"
     inkscape:cy="100.87027"
     inkscape:document-units="px"
     inkscape:current-layer="layer1"
     showgrid="false"
     inkscape:pagecheckerboard="true"
     units="px"
     showguides="true"
     inkscape:guide-bbox="true"
     inkscape:window-width="1618"
     inkscape:window-height="1028"
     inkscape:window-x="1734"
     inkscape:window-y="-8"
     inkscape:window-maximized="1" />
  <metadata
     id="metadata26754">
    <rdf:RDF>
      <cc:Work
         rdf:about="">
        <dc:format>image/svg+xml</dc:format>
        <dc:type
           rdf:resource="http://purl.org/dc/dcmitype/StillImage" />
        <dc:title></dc:title>
      </cc:Work>
    </rdf:RDF>
  </metadata>
  <g
     inkscape:label="Layer 1"
     inkscape:groupmode="layer"
     id="layer1"
     transform="translate(0,-263.13334)">
    <g
       id="g36869">
      <rect
         ry="2.7412736"
         rx="0.81093538"
         y="270.12918"
         x="5.2666593"
         height="17.647259"
         width="9.2921219"
         id="rect27302"
         style="opacity:0;fill:#e51515;fill-opacity:1;stroke:#000000;stroke-width:0.68054384;stroke-opacity:1" />
      <rect
         ry="2.7412736"
         rx="0.81093538"
         y="269.7009"
         x="20.134056"
         height="20.13158"
         width="13.262392"
         id="rect27304"
         style="opacity:0;fill:none;fill-opacity:1;stroke:#000000;stroke-width:0.68054384;stroke-opacity:1" />
      <path
         inkscape:connector-curvature="0"
         id="path27384"
         d="m 19.892512,263.61455 c -1.840305,0.27719 -10.163201,10.43058 -10.6555821,10.9693 0,0 -7.1264914,-0.55242 -8.1094884,0 -0.86409295,0.48562 -0.88841608,10.45144 0,10.96529 0.9610025,0.55583 8.1094884,0 8.1094884,0 0,0 9.3548201,11.32677 10.8126511,10.96528 1.457831,-0.36149 1.392722,-32.51947 0,-32.89586 -0.04539,-0.0123 -0.0977,-0.0129 -0.157069,-0.004 z"
         style="fill:#ee0056;fill-opacity:1;stroke:none;stroke-width:0.68054378px;stroke-linecap:butt;stroke-linejoin:miter;stroke-opacity:1" />
      <g
         transform="translate(5.8208336)"
         id="g36860">
        <path
           style="fill:#ee0056;fill-opacity:1;stroke:none;stroke-width:0.59353608px;stroke-linecap:butt;stroke-linejoin:miter;stroke-opacity:1"
           d="m 23.047449,270.73332 c 0,0 2.19e-4,-1.33324 1.056877,-1.33324 1.056668,0 1.056877,1.33324 1.056877,1.33324 v 18.66636 c 0,0 -2.12e-4,1.33324 -1.056877,1.33324 -1.056658,0 -1.056877,-1.33324 -1.056877,-1.33324 z"
           id="path27397"
           inkscape:connector-curvature="0"
           sodipodi:nodetypes="czcczcc" />
        <path
           style="fill:#ee0056;fill-opacity:1;stroke:none;stroke-width:0.49698946px;stroke-linecap:butt;stroke-linejoin:miter;stroke-opacity:1"
           d="m 26.632246,273.52288 c 0,0 2.19e-4,-0.93478 1.056877,-0.93478 1.056668,0 1.056877,0.93478 1.056877,0.93478 v 13.08759 c 0,0 -2.12e-4,0.93478 -1.056877,0.93478 -1.056658,0 -1.056877,-0.93478 -1.056877,-0.93478 z"
           id="path27397-3"
           inkscape:connector-curvature="0"
           sodipodi:nodetypes="czcczcc" />
        <path
           style="fill:#ee0056;fill-opacity:1;stroke:none;stroke-width:0.44281027px;stroke-linecap:butt;stroke-linejoin:miter;stroke-opacity:1"
           d="m 30.140158,274.87185 c 0,0 2.19e-4,-0.74208 1.056877,-0.74208 1.056668,0 1.056877,0.74208 1.056877,0.74208 v 10.38964 c 0,0 -2.12e-4,0.74208 -1.056877,0.74208 -1.056658,0 -1.056877,-0.74208 -1.056877,-0.74208 z"
           id="path27397-3-9"
           inkscape:connector-curvature="0"
           sodipodi:nodetypes="czcczcc" />
      </g>
    </g>
  </g>
</svg>
