<?xml version="1.0" encoding="UTF-8" standalone="no"?>
<!-- Created with Inkscape (http://www.inkscape.org/) -->

<svg
   xmlns:dc="http://purl.org/dc/elements/1.1/"
   xmlns:cc="http://creativecommons.org/ns#"
   xmlns:rdf="http://www.w3.org/1999/02/22-rdf-syntax-ns#"
   xmlns:svg="http://www.w3.org/2000/svg"
   xmlns="http://www.w3.org/2000/svg"
   xmlns:sodipodi="http://sodipodi.sourceforge.net/DTD/sodipodi-0.dtd"
   xmlns:inkscape="http://www.inkscape.org/namespaces/inkscape"
   width="48"
   height="56"
   viewBox="0 0 12.7 14.816666"
   version="1.1"
   id="svg1104"
   inkscape:version="0.92.4 (5da689c313, 2019-01-14)"
   sodipodi:docname="micoin3.svg">
  <defs
     id="defs1098" />
  <sodipodi:namedview
     id="base"
     pagecolor="#ffffff"
     bordercolor="#666666"
     borderopacity="1.0"
     inkscape:pageopacity="0.0"
     inkscape:pageshadow="2"
     inkscape:zoom="32"
     inkscape:cx="23.062569"
     inkscape:cy="47.660433"
     inkscape:document-units="px"
     inkscape:current-layer="layer1"
     showgrid="false"
     units="px"
     inkscape:pagecheckerboard="true"
     showguides="true"
     inkscape:guide-bbox="true"
     inkscape:snap-to-guides="false"
     inkscape:snap-grids="false"
     inkscape:window-width="1618"
     inkscape:window-height="1028"
     inkscape:window-x="1734"
     inkscape:window-y="-8"
     inkscape:window-maximized="1" />
  <metadata
     id="metadata1101">
    <rdf:RDF>
      <cc:Work
         rdf:about="">
        <dc:format>image/svg+xml</dc:format>
        <dc:type
           rdf:resource="http://purl.org/dc/dcmitype/StillImage" />
        <dc:title></dc:title>
      </cc:Work>
    </rdf:RDF>
  </metadata>
  <g
     inkscape:label="Layer 1"
     inkscape:groupmode="layer"
     id="layer1"
     transform="translate(0,-282.18334)">
    <rect
       style="fill:#23a0da;fill-opacity:0.2745098;stroke-width:0.4860518"
       id="rect5811"
       width="12.199697"
       height="13.140924"
       x="0.14281495"
       y="283.59451"
       ry="6.5704622"
       rx="6.0998483" />
    <circle
       style="fill:#20a2db;fill-opacity:1;stroke-width:0.47024632"
       id="path1106"
       cx="6.3500004"
       cy="290.64999"
       r="6.3500004" />
    <g
       id="g5820"
       transform="translate(1.2992614e-7,-0.11541841)">
      <g
         transform="matrix(1.4999999,0,0,1.4999999,-0.0607297,-149.37554)"
         id="g5701">
        <path
           sodipodi:type="star"
           style="fill:#ffffff;fill-opacity:1;stroke-width:0.26458332"
           id="path1913-7"
           sodipodi:sides="3"
           sodipodi:cx="-0.95882934"
           sodipodi:cy="288.0899"
           sodipodi:r1="2.9038322"
           sodipodi:r2="1.8772722"
           sodipodi:arg1="2.1029287"
           sodipodi:arg2="-3.0726507"
           inkscape:flatsided="false"
           inkscape:rounded="0.21"
           inkscape:randomized="0"
           d="m -2.4321525,290.59222 c -0.463682,-0.31218 -0.4042589,-2.07268 -0.3994895,-2.63164 0.00437,-0.51201 -0.017606,-2.17291 0.4424094,-2.39777 0.5021892,-0.24547 1.99712099,0.68624 2.47880428,0.96985 0.44123134,0.25979 1.89059882,1.07121 1.85532542,1.58202 -0.038507,0.55765 -1.59286213,1.38644 -2.07931478,1.66179 -0.44560017,0.25222 -1.87299312,1.1017 -2.29773482,0.81575 z"
           inkscape:transform-center-x="0.55854427"
           inkscape:transform-center-y="0.015157255"
           transform="matrix(-0.58575504,-0.00388776,0.00393498,-0.5928698,3.6339871,464.15224)" />
        <path
           sodipodi:type="star"
           style="fill:#ffffff;fill-opacity:1;stroke-width:0.26458332"
           id="path1913"
           sodipodi:sides="3"
           sodipodi:cx="-0.95882934"
           sodipodi:cy="288.0899"
           sodipodi:r1="2.9038322"
           sodipodi:r2="1.8772722"
           sodipodi:arg1="2.1029287"
           sodipodi:arg2="-3.0726507"
           inkscape:flatsided="false"
           inkscape:rounded="0.21"
           inkscape:randomized="0"
           d="m -2.4321525,290.59222 c -0.463682,-0.31218 -0.4042589,-2.07268 -0.3994895,-2.63164 0.00437,-0.51201 -0.017606,-2.17291 0.4424094,-2.39777 0.5021892,-0.24547 1.99712099,0.68624 2.47880428,0.96985 0.44123134,0.25979 1.89059882,1.07121 1.85532542,1.58202 -0.038507,0.55765 -1.59286213,1.38644 -2.07931478,1.66179 -0.44560017,0.25222 -1.87299312,1.1017 -2.29773482,0.81575 z"
           inkscape:transform-center-x="-0.55973893"
           inkscape:transform-center-y="-0.009806075"
           transform="matrix(0.58576795,0,0,0.59288286,3.7782449,122.53629)" />
        <path
           sodipodi:type="star"
           style="fill:#1c3661;fill-opacity:1;stroke-width:0.26458332"
           id="path1913-8"
           sodipodi:sides="3"
           sodipodi:cx="-0.95882934"
           sodipodi:cy="288.0899"
           sodipodi:r1="2.9038322"
           sodipodi:r2="1.8772722"
           sodipodi:arg1="2.1029287"
           sodipodi:arg2="-3.0726507"
           inkscape:flatsided="false"
           inkscape:rounded="0.21"
           inkscape:randomized="0"
           d="m -2.4321525,290.59222 c -0.463682,-0.31218 -0.4042589,-2.07268 -0.3994895,-2.63164 0.00437,-0.51201 -0.017606,-2.17291 0.4424094,-2.39777 0.5021892,-0.24547 1.99712099,0.68624 2.47880428,0.96985 0.44123134,0.25979 1.89059882,1.07121 1.85532542,1.58202 -0.038507,0.55765 -1.59286213,1.38644 -2.07931478,1.66179 -0.44560017,0.25222 -1.87299312,1.1017 -2.29773482,0.81575 z"
           inkscape:transform-center-x="-0.29104022"
           inkscape:transform-center-y="-0.005103291"
           transform="matrix(0.30457417,0,0,0.30827362,3.6494547,204.53759)" />
        <path
           sodipodi:type="star"
           style="fill:#23a0da;fill-opacity:1;stroke-width:0.26458332"
           id="path1913-8-7"
           sodipodi:sides="3"
           sodipodi:cx="-0.95882934"
           sodipodi:cy="288.0899"
           sodipodi:r1="2.9038322"
           sodipodi:r2="1.8772722"
           sodipodi:arg1="2.1029287"
           sodipodi:arg2="-3.0726507"
           inkscape:flatsided="false"
           inkscape:rounded="0.21"
           inkscape:randomized="0"
           d="m -2.4321525,290.59222 c -0.463682,-0.31218 -0.4042589,-2.07268 -0.3994895,-2.63164 0.00437,-0.51201 -0.017606,-2.17291 0.4424094,-2.39777 0.5021892,-0.24547 1.99712099,0.68624 2.47880428,0.96985 0.44123134,0.25979 1.89059882,1.07121 1.85532542,1.58202 -0.038507,0.55765 -1.59286213,1.38644 -2.07931478,1.66179 -0.44560017,0.25222 -1.87299312,1.1017 -2.29773482,0.81575 z"
           inkscape:transform-center-x="0.28892583"
           inkscape:transform-center-y="0.010683655"
           transform="matrix(-0.30449187,-0.00708037,0.00716637,-0.3081903,2.8537351,382.14912)" />
        <ellipse
           style="fill:#ffffff;fill-opacity:1;stroke-width:0.19803005"
           id="path1930"
           cx="4.2783833"
           cy="293.34415"
           rx="0.41133344"
           ry="0.4463405" />
      </g>
      <path
         sodipodi:nodetypes="ccc"
         inkscape:connector-curvature="0"
         id="path45932-9"
         d="m 6.8724884,285.48674 c 1.2338722,-0.0325 3.6529686,0.97755 4.3844366,3.08172 0.225121,-1.51959 -1.186218,-3.49807 -4.3844366,-3.08172 z"
         style="display:inline;fill:#ffffff;fill-opacity:1;stroke:none;stroke-width:0.47343132px;stroke-linecap:butt;stroke-linejoin:miter;stroke-opacity:1" />
    </g>
  </g>
</svg>
