<?xml version="1.0" encoding="UTF-8" standalone="no"?>
<!-- Created with Inkscape (http://www.inkscape.org/) -->

<svg
   xmlns:dc="http://purl.org/dc/elements/1.1/"
   xmlns:cc="http://creativecommons.org/ns#"
   xmlns:rdf="http://www.w3.org/1999/02/22-rdf-syntax-ns#"
   xmlns:svg="http://www.w3.org/2000/svg"
   xmlns="http://www.w3.org/2000/svg"
   xmlns:sodipodi="http://sodipodi.sourceforge.net/DTD/sodipodi-0.dtd"
   xmlns:inkscape="http://www.inkscape.org/namespaces/inkscape"
   width="240"
   height="63.999996"
   viewBox="0 0 63.499995 16.933333"
   version="1.1"
   id="svg26341"
   inkscape:version="0.92.4 (5da689c313, 2019-01-14)"
   sodipodi:docname="mitelbar.svg">
  <defs
     id="defs26335">
    <pattern
       y="0"
       x="0"
       height="6"
       width="6"
       patternUnits="userSpaceOnUse"
       id="EMFhbasepattern" />
  </defs>
  <sodipodi:namedview
     id="base"
     pagecolor="#ffffff"
     bordercolor="#666666"
     borderopacity="1.0"
     inkscape:pageopacity="0.0"
     inkscape:pageshadow="2"
     inkscape:zoom="1"
     inkscape:cx="261.23012"
     inkscape:cy="-188.69234"
     inkscape:document-units="px"
     inkscape:current-layer="layer1"
     showgrid="false"
     units="px"
     showborder="true"
     inkscape:pagecheckerboard="true"
     inkscape:window-width="1680"
     inkscape:window-height="1028"
     inkscape:window-x="-8"
     inkscape:window-y="-8"
     inkscape:window-maximized="1"
     showguides="true"
     inkscape:guide-bbox="true" />
  <metadata
     id="metadata26338">
    <rdf:RDF>
      <cc:Work
         rdf:about="">
        <dc:format>image/svg+xml</dc:format>
        <dc:type
           rdf:resource="http://purl.org/dc/dcmitype/StillImage" />
        <dc:title></dc:title>
      </cc:Work>
    </rdf:RDF>
  </metadata>
  <g
     inkscape:label="Layer 1"
     inkscape:groupmode="layer"
     id="layer1"
     transform="translate(63.493979,-136.92773)">
    <g
       inkscape:groupmode="layer"
       id="layer5"
       inkscape:label="Layer 2" />
    <rect
       style="fill:#ffffff;fill-opacity:1;stroke:none;stroke-width:0.52168518"
       id="rect2792"
       width="61.744686"
       height="14.816667"
       x="-61.738667"
       y="137.98607"
       ry="7.4083333" />
    <circle
       style="fill:#ffffff;fill-rule:evenodd;stroke-width:0.28354952"
       id="path2167-4"
       cx="-55.027313"
       cy="145.39439"
       r="8.4666662" />
    <g
       id="g2861"
       transform="translate(-30.541367,25.433645)">
      <path
         inkscape:connector-curvature="0"
         style="fill:#23a0da;fill-opacity:1;fill-rule:nonzero;stroke:none;stroke-width:0.26458332"
         d="m -24.591825,113.12401 c 3.386642,0 6.095955,2.87865 6.095955,6.45579 0,3.57714 -2.709313,6.45578 -6.095955,6.45578 -3.386641,0 -6.095954,-2.87864 -6.095954,-6.45578 0,-3.57714 2.709313,-6.45579 6.095954,-6.45579 z"
         id="path2822" />
      <path
         inkscape:connector-curvature="0"
         style="fill:#20a2db;fill-opacity:1;fill-rule:nonzero;stroke:none;stroke-width:0.26458332"
         d="m -18.136039,119.96079 c 0,3.49248 -2.836313,6.34996 -6.349953,6.34996 -3.513641,0 -6.349953,-2.85748 -6.349953,-6.34996 0,-3.51364 2.836312,-6.34995 6.349953,-6.34995 3.51364,0 6.349953,2.83631 6.349953,6.34995 z"
         id="path2824" />
      <path
         inkscape:connector-curvature="0"
         style="fill:#ffffff;fill-opacity:1;fill-rule:nonzero;stroke:none;stroke-width:0.26458332"
         d="m -21.58618,117.63248 c 0.402163,0.27516 0.338664,1.84148 0.317497,2.34948 0,0.4445 0.02117,1.92615 -0.402164,2.11665 -0.42333,0.21167 -1.735653,-0.61383 -2.158983,-0.86783 -0.380997,-0.23283 -1.650988,-0.97366 -1.629822,-1.41815 0.04233,-0.508 1.418157,-1.22766 1.841487,-1.46049 0.402163,-0.23283 1.650988,-0.97366 2.031985,-0.71966 z"
         id="path2826" />
      <path
         inkscape:connector-curvature="0"
         style="fill:#ffffff;fill-opacity:1;fill-rule:nonzero;stroke:none;stroke-width:0.26458332"
         d="m -27.364637,122.05628 c -0.402164,-0.27517 -0.359831,-1.84149 -0.359831,-2.34949 0.02117,-0.44449 0,-1.92615 0.402164,-2.13781 0.444496,-0.21167 1.75682,0.61383 2.18015,0.86782 0.380997,0.23284 1.650988,0.9525 1.629821,1.41816 -0.04233,0.48683 -1.418156,1.22766 -1.841486,1.46049 -0.380997,0.23283 -1.629821,0.99483 -2.010818,0.74083 z"
         id="path2828" />
      <path
         inkscape:connector-curvature="0"
         style="fill:#1c3661;fill-opacity:1;fill-rule:nonzero;stroke:none;stroke-width:0.26458332"
         d="m -26.539144,120.99795 c -0.211665,-0.14816 -0.169332,-0.95249 -0.169332,-1.22766 0,-0.23283 -0.02117,-0.99482 0.190499,-1.10065 0.232832,-0.10584 0.91016,0.31749 1.142991,0.44449 0.190499,0.127 0.846661,0.508 0.846661,0.74083 -0.02117,0.254 -0.740828,0.635 -0.952493,0.76199 -0.211665,0.127 -0.867827,0.508 -1.058326,0.381 z"
         id="path2830" />
      <path
         inkscape:connector-curvature="0"
         style="fill:#23a0da;fill-opacity:1;fill-rule:nonzero;stroke:none;stroke-width:0.26458332"
         d="m -22.390508,118.73314 c 0.211665,0.14816 0.169332,0.95249 0.169332,1.20649 -0.02117,0.25399 -0.02117,1.01599 -0.232831,1.12182 -0.232832,0.10583 -0.91016,-0.33866 -1.121825,-0.48683 -0.190499,-0.127 -0.846661,-0.50799 -0.825494,-0.74083 0.02117,-0.25399 0.740828,-0.63499 0.952493,-0.76199 0.211665,-0.10583 0.867827,-0.48683 1.058325,-0.33866 z"
         id="path2832" />
      <path
         inkscape:connector-curvature="0"
         style="fill:#ffffff;fill-opacity:1;fill-rule:nonzero;stroke:none;stroke-width:0.26458332"
         d="m -23.872163,119.83379 c 0,0.35983 -0.275165,0.67733 -0.613829,0.67733 -0.338664,0 -0.613829,-0.3175 -0.613829,-0.67733 0,-0.38099 0.275165,-0.67732 0.613829,-0.67732 0.338664,0 0.613829,0.29633 0.613829,0.67732 z"
         id="path2834" />
      <path
         inkscape:connector-curvature="0"
         style="fill:#ffffff;fill-opacity:1;fill-rule:nonzero;stroke:none;stroke-width:0.26458332"
         d="m -23.95683,114.66917 c 1.227658,-0.0212 3.64064,0.99482 4.381468,3.09031 0.211665,-1.52399 -1.185324,-3.49248 -4.381468,-3.09031 z"
         id="path2836" />
    </g>
  </g>
</svg>
