<?xml version="1.0" encoding="UTF-8" standalone="no"?>
<!-- Created with Inkscape (http://www.inkscape.org/) -->

<svg
   xmlns:dc="http://purl.org/dc/elements/1.1/"
   xmlns:cc="http://creativecommons.org/ns#"
   xmlns:rdf="http://www.w3.org/1999/02/22-rdf-syntax-ns#"
   xmlns:svg="http://www.w3.org/2000/svg"
   xmlns="http://www.w3.org/2000/svg"
   xmlns:sodipodi="http://sodipodi.sourceforge.net/DTD/sodipodi-0.dtd"
   xmlns:inkscape="http://www.inkscape.org/namespaces/inkscape"
   width="240"
   height="63.999996"
   viewBox="0 0 63.499995 16.933333"
   version="1.1"
   id="svg26341"
   inkscape:version="0.92.4 (5da689c313, 2019-01-14)"
   sodipodi:docname="healthbar-25.svg">
  <defs
     id="defs26335" />
  <sodipodi:namedview
     id="base"
     pagecolor="#ffffff"
     bordercolor="#666666"
     borderopacity="1.0"
     inkscape:pageopacity="0.0"
     inkscape:pageshadow="2"
     inkscape:zoom="1.4142136"
     inkscape:cx="142.80897"
     inkscape:cy="8.6781431"
     inkscape:document-units="px"
     inkscape:current-layer="layer1"
     showgrid="false"
     units="px"
     showborder="true"
     inkscape:pagecheckerboard="true"
     inkscape:window-width="1680"
     inkscape:window-height="1028"
     inkscape:window-x="-8"
     inkscape:window-y="-8"
     inkscape:window-maximized="1"
     showguides="true"
     inkscape:guide-bbox="true" />
  <metadata
     id="metadata26338">
    <rdf:RDF>
      <cc:Work
         rdf:about="">
        <dc:format>image/svg+xml</dc:format>
        <dc:type
           rdf:resource="http://purl.org/dc/dcmitype/StillImage" />
        <dc:title></dc:title>
      </cc:Work>
    </rdf:RDF>
  </metadata>
  <g
     inkscape:label="Layer 1"
     inkscape:groupmode="layer"
     id="layer1"
     transform="translate(63.493979,-136.92773)">
    <g
       inkscape:groupmode="layer"
       id="layer5"
       inkscape:label="Layer 2" />
    <rect
       style="fill:#ffffff;fill-opacity:1;stroke:none;stroke-width:0.52049828"
       id="rect2792"
       width="61.464054"
       height="14.816667"
       x="-61.458035"
       y="137.98607"
       ry="7.4083333" />
    <circle
       style="fill:#ffffff;fill-rule:evenodd;stroke-width:0.28354952"
       id="path2167-4"
       cx="-55.027313"
       cy="145.39439"
       r="8.4666662" />
    <path
       style="fill:#ff0000;fill-opacity:1;stroke:none;stroke-width:0.07150377"
       d="m -60.41725,141.11974 a 4.3754745,3.4669384 60.219141 0 0 0.539419,5.86747 l 4.664214,-5.2837 -4.663089,5.28494 4.712821,5.26453 4.678827,-5.30278 -0.118537,-0.13241 0.118944,0.13195 a 3.4627111,4.3692902 29.181525 0 0 0.477524,-5.86484 3.4627111,4.3692902 29.181525 0 0 -5.190137,0.60147 l -6.06e-4,-6.4e-4 a 4.3754745,3.4669384 60.219141 0 0 -5.21937,-0.56593 z"
       id="rect2129-6"
       inkscape:connector-curvature="0" />
    <path
       style="fill:#ffffff;fill-opacity:1;stroke:none;stroke-width:0.18804745px;stroke-linecap:butt;stroke-linejoin:miter;stroke-opacity:1"
       d="m -52.954272,141.81899 c 1.654783,-0.35938 2.69597,0.89455 2.376263,2.37983 0.04629,0.016 0.908582,-1.73891 -0.336356,-2.51469 -0.492639,-0.30699 -1.381735,-0.47518 -2.039907,0.13486 z"
       id="path2762"
       inkscape:connector-curvature="0"
       sodipodi:nodetypes="ccsc" />
    <path
       style="fill:#ad0000;fill-opacity:1;stroke:none;stroke-width:0.30238092px;stroke-linecap:butt;stroke-linejoin:miter;stroke-opacity:1"
       d="m -60.356563,146.11611 c 0,0 2.915885,3.42803 5.159374,5.63184 l 2.570238,-2.54189 c -3.647146,1.37499 -7.729612,-3.08995 -7.729612,-3.08995 z"
       id="path2764"
       inkscape:connector-curvature="0"
       sodipodi:nodetypes="cccc" />
    <rect
       style="fill:#ff0000;fill-opacity:1;stroke:none;stroke-width:0.16529615"
       id="rect2792-4"
       width="10.847917"
       height="8.4666662"
       x="-46.031479"
       y="141.16106"
       ry="4.2333331" />
  </g>
</svg>
